<?xml version="1.0" encoding="UTF-8" standalone="no"?>
<!-- Created with Inkscape (http://www.inkscape.org/) -->

<svg
   xmlns:dc="http://purl.org/dc/elements/1.1/"
   xmlns:cc="http://creativecommons.org/ns#"
   xmlns:rdf="http://www.w3.org/1999/02/22-rdf-syntax-ns#"
   xmlns:svg="http://www.w3.org/2000/svg"
   xmlns="http://www.w3.org/2000/svg"
   xmlns:xlink="http://www.w3.org/1999/xlink"
   xmlns:sodipodi="http://sodipodi.sourceforge.net/DTD/sodipodi-0.dtd"
   xmlns:inkscape="http://www.inkscape.org/namespaces/inkscape"
   width="132"
   height="32"
   viewBox="0 0 34.924999 8.4666669"
   version="1.1"
   id="svg8"
   inkscape:version="0.92.3 (2405546, 2018-03-11)"
   sodipodi:docname="kajar_labs_without_logo.svg">
  <defs
     id="defs2">
    <radialGradient
       inkscape:collect="always"
       xlink:href="#linearGradient4894"
       id="radialGradient1249"
       gradientUnits="userSpaceOnUse"
       gradientTransform="matrix(9.91219,3.8640367,-1.5156441,3.887996,-1407.4246,-1097.5383)"
       cx="172.76143"
       cy="134.80534"
       fx="172.76143"
       fy="134.80534"
       r="4.8866181" />
    <linearGradient
       id="linearGradient4894"
       inkscape:collect="always">
      <stop
         id="stop4888"
         offset="0"
         style="stop-color:#808080;stop-opacity:1" />
      <stop
         style="stop-color:#40341c;stop-opacity:0.99626863"
         offset="0.73100019"
         id="stop4890" />
      <stop
         id="stop4892"
         offset="1"
         style="stop-color:#333333;stop-opacity:1" />
    </linearGradient>
    <radialGradient
       inkscape:collect="always"
       xlink:href="#1214-BW"
       id="radialGradient1220"
       cx="168.01018"
       cy="128.35617"
       fx="168.01018"
       fy="128.35617"
       r="4.8866181"
       gradientTransform="matrix(2.0912127,0,0,2.8355558,-260.74633,-297.114)"
       gradientUnits="userSpaceOnUse" />
    <linearGradient
       inkscape:collect="always"
       id="1214-BW">
      <stop
         style="stop-color:#a3822f;stop-opacity:1"
         offset="0"
         id="stop1210" />
      <stop
         id="stop1222"
         offset="0.73100019"
         style="stop-color:#40341c;stop-opacity:0.99626863" />
      <stop
         style="stop-color:#6e593b;stop-opacity:0.95149255"
         offset="1"
         id="stop1212" />
    </linearGradient>
    <radialGradient
       inkscape:collect="always"
       xlink:href="#1214-BW"
       id="radialGradient1323"
       gradientUnits="userSpaceOnUse"
       gradientTransform="matrix(3.7576242,0,0,3.3714389,-540.87051,-380.36189)"
       cx="168.47601"
       cy="139.36925"
       fx="168.47601"
       fy="139.36925"
       r="4.8866181" />
    <radialGradient
       inkscape:collect="always"
       xlink:href="#929-BW"
       id="radialGradient1386"
       gradientUnits="userSpaceOnUse"
       gradientTransform="matrix(6.9323199,-0.14062852,0.07955273,3.9215729,-660.23761,-423.34208)"
       cx="109.56001"
       cy="135.15414"
       fx="109.56001"
       fy="135.15414"
       r="3.299118" />
    <linearGradient
       inkscape:collect="always"
       id="929-BW">
      <stop
         style="stop-color:#8277e8;stop-opacity:1"
         offset="0"
         id="stop925" />
      <stop
         style="stop-color:#827738;stop-opacity:0.99215686"
         offset="1"
         id="stop927" />
    </linearGradient>
    <radialGradient
       inkscape:collect="always"
       xlink:href="#929-BW"
       id="radialGradient1001"
       gradientUnits="userSpaceOnUse"
       gradientTransform="matrix(6.933746,-9.126523e-6,4.1147024e-6,3.1260866,-649.64258,-331.23508)"
       cx="106.75913"
       cy="135.65785"
       fx="106.75913"
       fy="135.65785"
       r="3.299118" />
    <radialGradient
       inkscape:collect="always"
       xlink:href="#1214-BW"
       id="radialGradient1397"
       gradientUnits="userSpaceOnUse"
       gradientTransform="matrix(-9.91219,3.8640367,1.5156441,3.887996,1589.0459,-1097.6695)"
       cx="172.76143"
       cy="134.80534"
       fx="172.76143"
       fy="134.80534"
       r="4.8866181" />
    <radialGradient
       inkscape:collect="always"
       xlink:href="#929-BW"
       id="radialGradient1149"
       cx="635.11414"
       cy="512.11249"
       fx="635.11414"
       fy="512.11249"
       r="20.021667"
       gradientTransform="matrix(0.34137121,0,0,0.28268904,-126.15062,-65.55539)"
       gradientUnits="userSpaceOnUse" />
    <radialGradient
       inkscape:collect="always"
       xlink:href="#929-BW"
       id="radialGradient1399"
       gradientUnits="userSpaceOnUse"
       gradientTransform="matrix(-6.9323199,-0.14062852,-0.07955273,3.9215729,841.85893,-423.47331)"
       cx="109.56001"
       cy="135.15414"
       fx="109.56001"
       fy="135.15414"
       r="3.299118" />
    <radialGradient
       inkscape:collect="always"
       xlink:href="#929-BW"
       id="radialGradient1026"
       gradientUnits="userSpaceOnUse"
       gradientTransform="matrix(2.3626187,0,0,2.938668,-161.63243,-307.12128)"
       cx="106.75914"
       cy="124.97254"
       fx="106.75914"
       fy="124.97254"
       r="3.299118" />
    <radialGradient
       inkscape:collect="always"
       xlink:href="#1214-BW"
       id="radialGradient1401"
       gradientUnits="userSpaceOnUse"
       gradientTransform="matrix(-5.3733782,-2.6964088,-1.0994494,2.1909723,1158.1641,257.29918)"
       cx="175.28622"
       cy="127.06042"
       fx="175.28622"
       fy="127.06042"
       r="4.8866181" />
    <radialGradient
       inkscape:collect="always"
       xlink:href="#929-BW"
       id="radialGradient1403"
       gradientUnits="userSpaceOnUse"
       gradientTransform="matrix(-6.0906097,-2.2166893,-1.4082417,3.869307,951.29307,-172.75853)"
       cx="115.28527"
       cy="125.95786"
       fx="115.28527"
       fy="125.95786"
       r="3.299118" />
    <radialGradient
       inkscape:collect="always"
       xlink:href="#1214-BW"
       id="radialGradient1361"
       gradientUnits="userSpaceOnUse"
       gradientTransform="matrix(5.3733782,-2.6964088,1.0994494,2.1909723,-976.54273,257.43041)"
       cx="175.28622"
       cy="127.06042"
       fx="175.28622"
       fy="127.06042"
       r="4.8866181" />
    <radialGradient
       inkscape:collect="always"
       xlink:href="#929-BW"
       id="radialGradient1182"
       gradientUnits="userSpaceOnUse"
       gradientTransform="matrix(6.0906097,-2.2166893,1.4082417,3.869307,-769.67182,-172.62731)"
       cx="115.28527"
       cy="125.95786"
       fx="115.28527"
       fy="125.95786"
       r="3.299118" />
  </defs>
  <sodipodi:namedview
     id="base"
     pagecolor="#ffffff"
     bordercolor="#666666"
     borderopacity="1.0"
     inkscape:pageopacity="0.0"
     inkscape:pageshadow="2"
     inkscape:zoom="4"
     inkscape:cx="16.220157"
     inkscape:cy="44.893611"
     inkscape:document-units="mm"
     inkscape:current-layer="layer1"
     showgrid="false"
     inkscape:window-width="1718"
     inkscape:window-height="1368"
     inkscape:window-x="419"
     inkscape:window-y="1080"
     inkscape:window-maximized="0"
     units="px" />
  <metadata
     id="metadata5">
    <rdf:RDF>
      <cc:Work
         rdf:about="">
        <dc:format>image/svg+xml</dc:format>
        <dc:type
           rdf:resource="http://purl.org/dc/dcmitype/StillImage" />
        <dc:title />
      </cc:Work>
    </rdf:RDF>
  </metadata>
  <g
     inkscape:label="Layer 1"
     inkscape:groupmode="layer"
     id="layer1"
     transform="translate(0,-288.53332)">
    <g
       aria-label="Kajar Labs"
       transform="matrix(0.05950391,0,0,0.07329356,1.2996368,252.62405)"
       style="font-style:normal;font-variant:normal;font-weight:normal;font-stretch:normal;font-size:40px;line-height:1.25;font-family:Stingray;-inkscape-font-specification:Stingray;letter-spacing:0px;word-spacing:0px;fill:#c0b888;fill-opacity:1;stroke:none"
       id="flowRoot3713">
      <path
         d="m 172.04563,518.19579 c -3.56648,2.85176 -9.59261,6.30678 -13.71251,8.88434 -2.52113,0.10968 -5.5342,1.15167 -6.2106,1.5904 -2.39815,1.7001 -2.95157,3.23566 -3.13605,5.10028 l -6.887,5.31964 c -3.50499,2.68724 -4.61183,4.11312 -9.03918,7.45846 -1.84474,1.37104 -3.75097,3.29051 -5.5342,5.15512 -2.15219,2.19366 -3.75097,3.01629 -4.98078,4.05828 -1.04535,-0.10968 -0.98387,-0.76779 -0.0615,-3.23566 0.36894,-1.04199 0.86087,-2.13883 1.35279,-3.29049 1.72176,-3.78408 3.99693,-7.67784 4.79632,-8.66499 3.56647,-4.66153 5.4727,-7.5133 9.22366,-11.8458 l 9.59261,-10.96833 c 2.7056,-3.12596 8.17831,-5.86805 10.88392,-8.28108 0.36894,-0.16452 2.58262,-2.13882 3.68946,-2.68724 2.1522,-0.82263 3.62798,-2.57756 3.93543,-3.34535 0.61491,-1.37103 0.24597,-2.85176 -1.04535,-4.11311 -1.16833,-1.09684 -2.64411,-2.02914 -3.75095,-2.19367 -1.29132,-0.16452 -6.70253,0.43873 -8.48578,1.91945 -1.84472,1.53557 -4.91928,7.07458 -5.65717,8.11657 -2.45965,3.40018 -5.28824,7.34878 -7.25595,9.59728 -4.98077,5.6487 -7.80936,10.41992 -14.08146,18.81069 -2.52113,3.34535 -4.36586,6.85521 -7.99384,13.21684 l -2.70561,4.55185 c -1.3528,2.30336 -2.64412,4.55186 -3.01306,5.59385 -0.86088,2.35819 -1.84473,5.31964 -2.02921,6.63585 -0.49193,2.13881 -0.79938,4.2228 -0.55342,5.81321 0.30746,1.91946 1.35281,3.18082 3.75096,3.29049 1.66026,0.0549 3.87394,-0.82262 5.84165,-2.02914 1.90623,-1.15167 3.62798,-2.68723 4.42736,-4.00343 0.79939,-1.20652 1.53727,-2.68724 2.52114,-4.27765 1.22981,-1.86462 2.70561,-3.9486 4.7963,-5.86806 1.90622,-1.86461 6.76402,-6.63584 7.87086,-7.78751 0.55342,-0.82263 5.71867,-5.31964 13.71251,-11.51675 0.86087,0.93231 1.96771,1.86461 2.89008,2.90661 3.13605,3.56471 7.00998,7.45846 7.50191,8.22625 2.15219,2.74208 6.51805,8.88435 12.29822,14.42335 6.14911,6.08742 12.72866,11.4619 15.68023,14.03946 4.7963,4.66154 9.03918,6.47132 11.86777,6.85521 1.29132,0.16452 3.505,0.10968 3.56649,-0.65811 -0.61491,-0.49357 -3.62798,-1.75493 -4.85779,-1.86461 -3.01307,-0.43873 -3.68947,-1.9743 -7.44043,-4.93575 -2.52113,-2.19366 -5.65718,-5.04543 -9.03919,-8.93919 -0.86087,-1.26135 -3.07455,-4.05827 -5.34972,-6.52615 -4.1199,-4.49701 -5.84165,-8.44561 -8.73173,-12.44905 -2.82859,-3.9486 -4.91929,-7.56815 -7.31744,-12.28453 -0.98386,-1.91947 -1.72175,-3.34535 -2.27517,-5.2648 0,0 -0.0615,0 -0.0615,-0.0549 l 3.44351,-2.74207 c 5.59569,-4.00345 11.12988,-8.00689 13.40505,-9.81666 14.26593,-10.69413 18.93926,-12.01032 20.35355,-13.162 0.36894,-0.32905 12.35971,-7.01972 15.43426,-8.55529 1.90623,-0.98715 4.98078,-2.90661 8.60876,-4.55186 1.22982,-0.32904 2.33666,-0.76779 3.38201,-1.15168 1.84473,-0.65809 2.39815,0.27422 3.50498,-0.21936 1.04535,-0.32905 2.21368,-0.9323 1.22983,-1.3162 -1.3528,-0.43874 -5.34972,0.21937 -7.80937,0.87747 -2.15219,0.54841 -7.25595,2.35819 -9.71559,3.72923 -4.55034,2.30334 -7.37893,2.57756 -13.03611,5.97774 -1.16833,0.71293 -6.45656,4.00344 -12.79015,7.67782 -5.4727,3.18082 -11.37584,6.25196 -15.00382,8.77468 z"
         style="fill:#182848;fill-opacity:1;stroke-width:1.02078402"
         id="path5104"
         inkscape:connector-curvature="0" />
      <path
         d="m 220.16952,524.61482 c -1.47912,0.0569 -4.43734,1.19467 -7.11112,2.44622 -3.24266,1.42223 -6.25777,3.18578 -8.76088,4.608 -2.21867,1.42223 -5.40445,4.096 -7.39556,5.80267 -3.64089,3.18578 -6.03022,5.23378 -8.93156,8.47644 -1.82044,2.048 -3.12889,4.15289 -4.32355,5.91645 -1.25156,1.93422 -1.99111,3.92533 -2.27556,5.40444 -0.11378,0.91023 0.96711,3.75467 2.048,4.66489 1.19467,0.91023 3.98222,1.30845 5.74578,0.62578 1.13778,-0.39822 2.56,-2.38933 4.66489,-4.43733 1.36533,-1.42223 3.64089,-3.072 4.608,-4.15289 2.16178,-2.33245 4.26667,-3.69778 7.22489,-5.632 l 5.51822,-3.41334 c 0.45511,-0.22755 2.33245,-1.08088 3.64089,-1.47911 1.19467,-0.34133 2.048,-0.39822 2.67378,-0.39822 0.62578,0.0569 0.62578,0.56889 0.512,1.19467 -0.39822,1.36533 -0.28445,1.30844 -0.68267,3.12889 -0.56889,2.44622 -0.73955,5.34755 -0.91022,6.94044 -0.62578,3.98222 2.44622,7.79378 5.40444,7.62311 2.90134,-0.17066 3.47023,-0.85333 6.31467,-2.95822 3.01511,-2.16178 6.99733,-5.40444 10.92267,-8.07822 1.93422,-1.36534 6.20089,-3.81156 7.73689,-4.94934 1.76355,-1.25155 2.38933,-1.36533 3.584,-2.21866 0.512,-0.28445 0.17066,-1.76356 -0.0569,-1.87734 -0.68267,-0.39822 -3.01511,0.34134 -3.35645,0.73956 -1.47911,1.76356 -5.40444,3.81156 -10.58133,7.168 -1.64978,1.08089 -4.55111,2.73067 -7.11111,3.584 -1.59289,0.56889 -3.072,0.45511 -3.98222,-0.56889 -0.56889,-0.68267 -0.91023,-1.70667 -0.85334,-3.24267 0,-1.19466 0.68267,-3.47022 1.536,-5.17688 0.34134,-0.56889 0.62578,-2.95823 2.56,-3.98223 1.42222,-0.79644 1.64978,-1.99111 1.64978,-3.52711 0,-0.73955 -0.0569,-1.536 -0.79644,-2.048 -0.73956,-0.512 -2.73067,-1.08089 -3.29956,-1.08089 -0.68267,0 -2.27556,0.45511 -3.24267,1.47911 -4.55111,2.38934 -19.22844,11.37778 -25.42933,14.848 -1.19467,0.62578 -2.90133,1.93423 -3.01511,1.536 -0.17067,-0.56888 1.99111,-3.47022 2.33244,-3.81155 1.47911,-1.99111 3.24267,-3.41333 4.55111,-4.608 1.70667,-1.70667 3.47023,-3.584 6.82667,-5.97333 1.59289,-1.19467 3.52711,-2.44623 6.03022,-3.584 1.25156,-0.56889 2.38934,-0.34134 3.29956,-0.512 1.47911,-0.39823 2.73067,0.17066 3.98222,0.17066 0.39822,0 1.82045,-1.08089 2.27556,-1.25155 0.39822,-0.17067 1.19466,-1.47911 1.30844,-2.33245 0.17067,-1.024 0.45511,-1.536 0.39822,-2.16178 -0.17066,-1.30844 -2.56,-3.01511 -5.23377,-2.90133 z"
         style="fill:#182848;fill-opacity:1"
         id="path5106"
         inkscape:connector-curvature="0" />
      <path
         d="m 261.52133,517.05644 c 1.16572,0.22872 4.85715,-0.74335 6.08763,-1.37233 3.23812,-1.60105 3.95049,-4.28853 4.85717,-5.94677 0.3238,-0.40026 1.29524,-3.25929 0.3238,-4.34571 -0.71237,-1.02925 -3.30286,-0.97208 -4.08001,-1.02925 -1.29523,0 -6.60573,1.82977 -8.61336,4.46007 -0.71239,1.14362 -1.55429,3.71674 -1.29524,4.86034 0.45334,1.4867 1.29524,2.91621 2.72001,3.37365 z m -29.27247,61.46902 c 2.26667,-2.97339 5.56953,-6.97602 7.12383,-9.26324 3.49715,-4.34572 10.23241,-17.21132 14.57148,-24.98787 1.23048,-2.28721 5.76382,-5.26061 6.92954,-6.17549 1.74858,-1.60106 1.10095,-2.74467 2.13715,-4.17418 0.58285,-1.02925 -0.19429,-3.08774 -0.97143,-4.11699 -0.84191,-0.85771 -2.52573,-1.48669 -3.49716,-1.60106 -1.29524,-0.22871 -5.95811,1.2008 -7.77145,2.91621 -1.23048,1.02925 -2.52573,2.57313 -2.9143,3.14493 -0.90666,1.20079 -0.12952,2.85902 -1.16572,4.28853 -1.8781,2.74467 -5.76382,12.86561 -7.96573,16.63952 -6.73527,11.03584 -16.90291,21.15678 -21.63055,25.84558 -5.50478,5.31778 -14.50671,10.46402 -21.95436,13.15151 -5.24573,1.94413 -10.16764,3.14493 -14.05338,3.37365 -1.87809,0.0572 -5.37524,0.85771 -6.86478,0.34308 -2.07238,-0.74335 -4.72763,-1.14361 -7.25335,-5.2606 -1.81334,-3.08775 -2.78478,2.28722 -0.19429,4.80316 2.72001,2.68748 5.6343,3.54519 7.5124,4.28854 2.26668,0.97207 4.98669,1.48669 7.90099,1.60105 2.84953,0.17154 7.5124,0.0572 11.72193,-0.97207 8.28955,-2.0585 17.6153,-6.34703 23.96198,-11.77918 3.62668,-3.08775 11.72194,-8.57707 14.3772,-12.06508 z"
         style="fill:#182848;fill-opacity:1;stroke-width:1.06968749"
         id="path5108"
         inkscape:connector-curvature="0" />
      <path
         d="m 297.66952,524.61482 c -1.47911,0.0569 -4.43733,1.19467 -7.11111,2.44622 -3.24266,1.42223 -6.25778,3.18578 -8.76089,4.608 -2.21866,1.42223 -5.40444,4.096 -7.39555,5.80267 -3.64089,3.18578 -6.03023,5.23378 -8.93156,8.47644 -1.82044,2.048 -3.12889,4.15289 -4.32355,5.91645 -1.25156,1.93422 -1.99112,3.92533 -2.27556,5.40444 -0.11378,0.91023 0.96711,3.75467 2.048,4.66489 1.19467,0.91023 3.98222,1.30845 5.74578,0.62578 1.13778,-0.39822 2.56,-2.38933 4.66489,-4.43733 1.36533,-1.42223 3.64089,-3.072 4.608,-4.15289 2.16177,-2.33245 4.26666,-3.69778 7.22489,-5.632 l 5.51822,-3.41334 c 0.45511,-0.22755 2.33244,-1.08088 3.64089,-1.47911 1.19466,-0.34133 2.048,-0.39822 2.67378,-0.39822 0.62577,0.0569 0.62577,0.56889 0.512,1.19467 -0.39823,1.36533 -0.28445,1.30844 -0.68267,3.12889 -0.56889,2.44622 -0.73956,5.34755 -0.91022,6.94044 -0.62578,3.98222 2.44622,7.79378 5.40444,7.62311 2.90133,-0.17066 3.47022,-0.85333 6.31467,-2.95822 3.01511,-2.16178 6.99733,-5.40444 10.92266,-8.07822 1.93423,-1.36534 6.20089,-3.81156 7.73689,-4.94934 1.76356,-1.25155 2.38934,-1.36533 3.584,-2.21866 0.512,-0.28445 0.17067,-1.76356 -0.0569,-1.87734 -0.68267,-0.39822 -3.01512,0.34134 -3.35645,0.73956 -1.47911,1.76356 -5.40444,3.81156 -10.58133,7.168 -1.64978,1.08089 -4.55111,2.73067 -7.11111,3.584 -1.59289,0.56889 -3.072,0.45511 -3.98223,-0.56889 -0.56889,-0.68267 -0.91022,-1.70667 -0.85333,-3.24267 0,-1.19466 0.68267,-3.47022 1.536,-5.17688 0.34133,-0.56889 0.62578,-2.95823 2.56,-3.98223 1.42222,-0.79644 1.64978,-1.99111 1.64978,-3.52711 0,-0.73955 -0.0569,-1.536 -0.79645,-2.048 -0.73955,-0.512 -2.73066,-1.08089 -3.29955,-1.08089 -0.68267,0 -2.27556,0.45511 -3.24267,1.47911 -4.55111,2.38934 -19.22844,11.37778 -25.42933,14.848 -1.19467,0.62578 -2.90134,1.93423 -3.01511,1.536 -0.17067,-0.56888 1.99111,-3.47022 2.33244,-3.81155 1.47911,-1.99111 3.24267,-3.41333 4.55111,-4.608 1.70667,-1.70667 3.47022,-3.584 6.82667,-5.97333 1.59289,-1.19467 3.52711,-2.44623 6.03022,-3.584 1.25156,-0.56889 2.38933,-0.34134 3.29956,-0.512 1.47911,-0.39823 2.73066,0.17066 3.98222,0.17066 0.39822,0 1.82044,-1.08089 2.27555,-1.25155 0.39823,-0.17067 1.19467,-1.47911 1.30845,-2.33245 0.17067,-1.024 0.45511,-1.536 0.39822,-2.16178 -0.17067,-1.30844 -2.56,-3.01511 -5.23378,-2.90133 z"
         style="fill:#182848;fill-opacity:1"
         id="path5110"
         inkscape:connector-curvature="0" />
      <path
         d="m 330.09663,530.30371 c -0.62577,1.024 -0.73955,4.32356 -1.42222,5.23378 -0.96711,1.47911 -4.32355,6.144 -5.51822,7.85066 -3.29956,4.72178 -4.15289,6.144 -5.632,9.10223 -0.79645,1.59289 -1.93422,4.32355 -1.87733,5.97333 0.17066,1.19467 2.048,4.096 3.41333,4.20978 1.70667,0.11378 4.15289,-0.73956 5.12,-1.99111 0.68267,-0.91023 1.30844,-1.82045 1.536,-2.95823 0.17067,-0.73955 0.11378,-2.048 0.512,-3.12888 0.34133,-0.68267 0.56889,-2.10489 1.99111,-3.86845 2.78756,-3.52711 1.99111,-2.78755 5.68889,-6.25778 2.048,-1.99111 5.57511,-5.23377 7.85067,-6.82666 1.82044,-1.30845 4.72177,-3.47023 5.91644,-3.92534 1.19467,-0.45511 3.41333,-1.024 4.32356,-1.024 1.08089,-0.0569 1.87733,0.45511 3.41333,1.024 1.08089,0.39823 1.76356,0.34134 3.18578,0.22756 0.91022,-0.0569 0.512,-0.22756 1.47911,-0.85333 1.93422,-1.30845 3.072,-2.95823 3.584,-5.17689 0.11378,-0.512 -0.39822,-1.70667 -0.79645,-2.27556 -0.45511,-0.62578 -1.99111,-1.08089 -2.50311,-1.024 -1.19466,0.17067 -1.76355,-0.17067 -2.90133,0.17067 -1.25156,0.39822 -2.16178,0.62577 -3.29956,1.19466 -0.96711,0.45512 -2.16177,1.19467 -3.12888,1.76356 -3.75467,2.16178 -8.64712,5.97333 -11.26401,7.96444 -0.73955,0.56889 -1.64977,1.47912 -2.61688,2.33245 -0.0569,0.0569 -0.91023,0.62578 -1.30845,0.62578 -0.28444,0 -0.22755,-0.45511 0,-0.85334 l 1.30845,-2.10489 c 0.91022,-1.19466 1.42222,-1.47911 1.82044,-1.93422 0.68267,-0.79644 1.08089,-1.08089 1.36533,-1.99111 0.28445,-0.62578 0.0569,-2.048 -0.39822,-2.50311 -0.28444,-0.28444 -0.68267,-0.85333 -1.30844,-1.19467 -0.73956,-0.45511 -1.64978,-0.68266 -2.21867,-0.73955 -1.25156,-0.11378 -2.84444,0.0569 -3.81156,0.39822 -1.47911,0.512 -2.10488,1.59289 -2.50311,2.56 z"
         style="fill:#182848;fill-opacity:1"
         id="path5112"
         inkscape:connector-curvature="0" />
      <path
         d="m 417.46242,498.44593 c 0.11378,-0.45511 0.28445,-1.19467 0,-1.76355 -0.39822,-0.79645 -1.25155,-1.36534 -1.70666,-1.36534 -0.96711,0 -1.99111,-1.82044 -4.94934,-1.47911 -2.90133,0.34133 -5.85955,1.82045 -7.22489,3.69778 -0.34133,0.45511 -2.44622,4.89244 -3.86844,6.42844 -1.64978,1.59289 -3.12889,3.92534 -5.34756,7.11111 -1.93422,2.78756 -4.43733,6.25778 -7.90755,10.52445 -3.86845,4.72178 -8.02134,9.44356 -12.06045,14.16533 -2.90133,3.41334 -5.85955,6.82667 -8.53333,10.35378 -2.56,3.29956 -4.89245,6.656 -6.94045,10.12622 -0.512,0.73956 -2.44622,4.20978 -3.35644,6.94045 -0.85333,2.38933 -0.79644,4.096 -0.79644,5.632 0,1.64978 0.62577,3.52711 1.87733,4.66489 1.25155,0.96711 4.72178,2.67378 6.31467,2.67378 2.56,-0.11378 4.49422,0.512 6.82666,0.45511 2.10489,-0.0569 4.49423,-0.79645 6.88356,-0.96711 6.76978,-0.512 12.8,-2.56 19.11467,-3.69778 6.37155,-1.19467 10.752,-2.38934 22.69866,-4.49422 8.53334,-1.59289 15.70134,-2.38934 18.88711,-1.99112 0.85334,0.11378 2.56,0.0569 2.56,-0.56888 0,-0.68267 -1.30844,-0.56889 -2.10488,-0.91023 -1.59289,-0.79644 -7.62312,0.17067 -12.51556,-0.0569 -2.84444,-0.0569 -14.39289,0.68267 -20.65067,1.76356 -6.20089,1.13778 -6.82666,1.536 -12.23111,1.99111 -5.12,0.45511 -11.15022,1.87733 -15.47378,1.87733 -3.69777,0 -6.42844,-1.08088 -7.85066,-1.82044 -1.76356,-0.85333 -2.73067,-2.44622 -2.84445,-4.03911 -0.28444,-3.24267 1.19467,-7.73689 3.75467,-12.11734 2.44622,-4.32355 6.59911,-11.49155 14.10844,-19.74044 1.93423,-1.93422 5.46134,-6.31467 7.22489,-8.30578 3.47022,-3.69778 10.29689,-9.15911 15.41689,-14.27911 2.95822,-3.01511 5.85956,-3.47022 7.96445,-5.68889 1.70666,-1.99111 2.50311,-4.20978 2.73066,-5.12 z"
         style="font-size:85.33333588px;fill:#c0b888;fill-opacity:1"
         id="path5114"
         inkscape:connector-curvature="0" />
      <path
         d="m 446.83618,524.61482 c -1.47911,0.0569 -4.43733,1.19467 -7.11111,2.44622 -3.24267,1.42223 -6.25778,3.18578 -8.76089,4.608 -2.21867,1.42223 -5.40445,4.096 -7.39556,5.80267 -3.64089,3.18578 -6.03022,5.23378 -8.93155,8.47644 -1.82045,2.048 -3.12889,4.15289 -4.32356,5.91645 -1.25155,1.93422 -1.99111,3.92533 -2.27555,5.40444 -0.11378,0.91023 0.96711,3.75467 2.048,4.66489 1.19466,0.91023 3.98222,1.30845 5.74577,0.62578 1.13778,-0.39822 2.56,-2.38933 4.66489,-4.43733 1.36534,-1.42223 3.64089,-3.072 4.608,-4.15289 2.16178,-2.33245 4.26667,-3.69778 7.22489,-5.632 l 5.51822,-3.41334 c 0.45512,-0.22755 2.33245,-1.08088 3.64089,-1.47911 1.19467,-0.34133 2.048,-0.39822 2.67378,-0.39822 0.62578,0.0569 0.62578,0.56889 0.512,1.19467 -0.39822,1.36533 -0.28444,1.30844 -0.68266,3.12889 -0.56889,2.44622 -0.73956,5.34755 -0.91023,6.94044 -0.62577,3.98222 2.44623,7.79378 5.40445,7.62311 2.90133,-0.17066 3.47022,-0.85333 6.31466,-2.95822 3.01512,-2.16178 6.99734,-5.40444 10.92267,-8.07822 1.93422,-1.36534 6.20089,-3.81156 7.73689,-4.94934 1.76356,-1.25155 2.38933,-1.36533 3.584,-2.21866 0.512,-0.28445 0.17067,-1.76356 -0.0569,-1.87734 -0.68267,-0.39822 -3.01511,0.34134 -3.35644,0.73956 -1.47911,1.76356 -5.40445,3.81156 -10.58134,7.168 -1.64977,1.08089 -4.55111,2.73067 -7.11111,3.584 -1.59289,0.56889 -3.072,0.45511 -3.98222,-0.56889 -0.56889,-0.68267 -0.91022,-1.70667 -0.85333,-3.24267 0,-1.19466 0.68266,-3.47022 1.536,-5.17688 0.34133,-0.56889 0.62577,-2.95823 2.56,-3.98223 1.42222,-0.79644 1.64977,-1.99111 1.64977,-3.52711 0,-0.73955 -0.0569,-1.536 -0.79644,-2.048 -0.73956,-0.512 -2.73067,-1.08089 -3.29956,-1.08089 -0.68266,0 -2.27555,0.45511 -3.24266,1.47911 -4.55111,2.38934 -19.22845,11.37778 -25.42934,14.848 -1.19466,0.62578 -2.90133,1.93423 -3.01511,1.536 -0.17066,-0.56888 1.99111,-3.47022 2.33245,-3.81155 1.47911,-1.99111 3.24266,-3.41333 4.55111,-4.608 1.70666,-1.70667 3.47022,-3.584 6.82666,-5.97333 1.59289,-1.19467 3.52712,-2.44623 6.03023,-3.584 1.25155,-0.56889 2.38933,-0.34134 3.29955,-0.512 1.47911,-0.39823 2.73067,0.17066 3.98223,0.17066 0.39822,0 1.82044,-1.08089 2.27555,-1.25155 0.39822,-0.17067 1.19467,-1.47911 1.30845,-2.33245 0.17066,-1.024 0.45511,-1.536 0.39822,-2.16178 -0.17067,-1.30844 -2.56,-3.01511 -5.23378,-2.90133 z"
         style="fill:#182848;fill-opacity:1"
         id="path5116"
         inkscape:connector-curvature="0" />
      <path
         d="m 472.98863,562.55971 c 0.79645,0.11378 7.62311,0.45511 12.45867,-2.38933 3.01511,-1.70667 6.25778,-3.24267 9.15911,-4.608 5.97334,-3.29956 8.13511,-5.97334 13.65334,-10.18311 2.38933,-1.87734 4.15288,-4.43734 5.91644,-6.20089 2.67378,-2.56 3.98222,-6.82667 4.03911,-8.02134 0.28445,-2.16177 -1.536,-4.72177 -3.81155,-5.40444 -0.91023,-0.22756 -2.048,-0.56889 -3.24267,-0.39822 -1.99111,0.34133 -5.40445,0.91022 -9.27289,2.56 -2.048,0.85333 -4.32356,2.21866 -6.20089,3.35644 -3.18578,1.82045 -6.37155,3.29956 -9.10222,5.17689 -0.34134,0.22756 -1.70667,1.024 -2.61689,1.25156 -1.536,0.39822 -1.64978,-1.47912 -1.25156,-2.33245 0.56889,-1.19467 1.47911,-2.67378 2.048,-3.584 0.91023,-1.36533 1.93423,-3.18578 3.072,-5.23378 1.024,-1.82044 2.21867,-3.81155 3.47023,-5.80266 1.59289,-2.56 3.41333,-5.00623 5.34755,-6.99734 1.36534,-1.36533 2.67378,-2.84444 3.86845,-4.03911 1.47911,-1.47911 2.90133,-2.61689 4.03911,-2.95822 2.048,-0.45511 3.18578,-2.27556 3.41333,-2.50311 0.73956,-0.45511 1.024,-2.84445 -0.34133,-3.81156 -0.79645,-0.56889 -2.50311,-1.82044 -4.49422,-1.59289 -1.64978,0.22756 -4.32356,1.536 -5.632,2.78756 -0.73956,0.85333 -1.76356,2.44622 -2.84445,4.096 -1.536,2.38933 -3.072,4.94933 -3.81155,5.91644 -1.19467,1.42223 -3.64089,4.66489 -6.03023,7.96445 -2.50311,3.41333 -4.94933,6.94044 -5.97333,8.47644 -1.82045,2.56 -2.90133,4.096 -3.69778,5.29067 -1.024,1.59289 -1.59289,2.67378 -2.73067,4.72178 -0.91022,1.59289 -1.536,2.84444 -1.99111,3.98222 -1.13777,2.61689 -1.36533,4.32356 -1.70666,6.94044 -0.11378,1.47912 0.73955,3.24267 2.10489,3.64089 l -0.39823,0.512 c -0.512,0.45511 -2.10489,3.75467 -1.76355,5.97334 0.28444,2.33244 3.01511,3.24266 4.32355,3.41333 z m 2.67378,-11.60533 c 0.17067,-0.39823 0.79645,-0.68267 2.27556,-3.01511 0.56889,-1.024 1.59289,-1.87734 2.56,-2.90134 2.21866,-2.27555 2.38933,-2.38933 5.17689,-4.55111 4.096,-2.95822 6.76977,-4.03911 10.18311,-6.20089 3.584,-2.27555 7.62311,-2.67378 9.216,-3.072 0.85333,-0.11378 1.47911,0.0569 1.87733,0.17067 0.79645,0.28444 -0.45511,2.10489 -0.73955,2.61689 -1.13778,2.16178 -1.59289,4.26666 -5.74578,7.45244 -1.536,1.13778 -3.64089,3.072 -6.76978,5.06311 -2.78756,1.76356 -7.45245,5.12 -12.288,7.56623 -3.12889,1.47911 -5.68889,2.50311 -7.05422,2.90133 -1.70667,0.45511 -1.59289,0.39822 -2.048,-0.22756 -0.56889,-0.62577 -0.34134,-2.33244 -0.0569,-3.35644 0.0569,-0.17067 0.28444,-0.512 0.56889,-0.85333 1.13777,-0.34134 2.33244,-0.91023 2.84444,-1.59289 z"
         style="fill:#182848;fill-opacity:1"
         id="path5118"
         inkscape:connector-curvature="0" />
      <path
         d="m 548.24823,557.01398 c 1.92856,-1.5941 2.22525,-1.96605 2.44778,-2.86938 0.44504,-2.07233 -0.22253,-3.50702 -1.85438,-4.88858 -1.55767,-1.38155 -4.30213,-2.6037 -5.71146,-3.13507 -2.00271,-0.90332 -4.07961,-2.44428 -5.93397,-3.1882 -1.40933,-0.5845 -2.967,-1.32841 -3.70875,-1.96605 -0.74174,-0.58451 -3.70873,-1.48783 -2.52194,-2.86939 1.03846,-1.32841 1.7802,-1.7535 3.18951,-2.23173 0.96428,-0.31882 2.29942,-0.69079 4.22797,-1.4347 0.5934,-0.31881 1.70603,-0.10627 3.04117,-0.53136 1.18679,-0.37196 3.78291,-0.10628 4.45048,-0.26568 1.03845,-0.15942 1.1868,0.1594 1.55768,0.26568 0.44505,0.10627 0.81591,0.15941 0.96426,0.69078 0,0.31881 -0.14835,1.22214 -0.0742,1.38155 0.29671,1.43469 1.85439,1.75351 3.56039,1.5941 1.7802,-0.15941 3.85709,-0.79705 4.52466,-1.06273 2.52195,-1.0096 3.78293,-2.33802 5.04389,-4.03839 0.2967,-0.63765 1.03845,-1.80665 0.8901,-2.39116 -0.14834,-0.26568 -0.66757,-1.27527 -1.85437,-1.85978 -1.18679,-0.53137 -3.04116,-0.63764 -3.48621,-0.79706 -1.7802,-0.21254 -3.63456,-0.10626 -5.48893,0.21255 -2.00273,0.31882 -4.82137,0.79705 -7.64001,1.54097 -1.78019,0.47823 -3.56039,1.0096 -5.19223,1.70037 -1.85438,0.74392 -4.07961,1.59411 -6.30486,2.55057 -2.0769,0.90332 -4.15379,1.85978 -5.93399,2.86938 -2.00271,1.11587 -3.56039,2.33801 -4.52466,3.56016 -0.37087,0.47823 -1.11263,1.38155 -0.44504,3.56015 0.22252,0.74392 1.92855,1.64725 4.00543,2.65685 1.18681,0.58449 2.52195,1.169 3.78293,1.80664 1.55765,0.79705 2.81864,1.96606 4.00543,2.70997 2.15107,1.22215 3.85708,3.24134 2.96699,4.67603 -1.26097,2.07233 -4.07962,2.65684 -5.26642,2.76311 -2.22522,0.15941 -4.45047,0.69078 -6.1565,0.85019 -4.82135,0.31882 -7.41746,0 -10.38447,0.1594 -2.15107,0.10628 -5.8598,-0.31881 -9.34602,-1.00959 -1.70601,-0.31882 -3.41204,-0.74392 -4.82136,-1.16901 -1.92854,-0.5845 -3.33787,-1.27528 -3.56039,-1.96606 -0.74174,-1.85978 -2.89281,-0.21254 -0.22253,2.70997 0.51923,0.53137 1.55767,1.16901 2.967,1.70038 1.70602,0.69077 3.78291,1.27528 6.00815,1.80665 2.44778,0.5845 4.89554,1.06273 6.7499,1.32841 3.8571,0.53137 7.71419,0.79706 9.79109,0.53137 1.85436,-0.26568 4.52466,-0.21254 6.82407,-0.42509 2.74447,-0.31882 5.85981,-0.63765 7.93671,-1.27528 1.85436,-0.58451 3.85709,-1.06274 5.71145,-1.75352 2.81865,-1.169 5.48894,-2.1786 5.78563,-2.49742 z"
         style="fill:#182848;fill-opacity:1;stroke-width:1.1035651"
         id="path5120"
         inkscape:connector-curvature="0" />
    </g>
    <g
       transform="matrix(0.06751442,0,0,0.06751442,-1.7424024,286.42314)"
       style="display:inline"
       id="g2208">
      <path
         sodipodi:nodetypes="cccccccc"
         inkscape:connector-curvature="0"
         id="path1155"
         d="m 98.013095,74.608195 -3.526543,5.19652 18.282658,3.29075 c 5.95505,5.5986 -5.47716,7.97028 -7.5185,8.21452 l 5.01093,36.279885 4.91718,-35.166495 c -1e-5,0 2.87709,-0.92802 3.24824,-7.97982 -1.17116,-5.47757 -14.75727,-6.44102 -20.413965,-9.83536 z"
         style="color:#000000;clip-rule:nonzero;display:inline;overflow:visible;visibility:visible;opacity:1;isolation:auto;mix-blend-mode:normal;color-interpolation:sRGB;color-interpolation-filters:linearRGB;solid-color:#000000;solid-opacity:1;vector-effect:none;fill:url(#radialGradient1249);fill-opacity:1;fill-rule:nonzero;stroke:none;stroke-width:2.23013973;stroke-linecap:butt;stroke-linejoin:miter;stroke-miterlimit:4;stroke-dasharray:none;stroke-dashoffset:0;stroke-opacity:0.62745098;color-rendering:auto;image-rendering:auto;shape-rendering:auto;text-rendering:auto;enable-background:accumulate" />
      <ellipse
         ry="14.118714"
         rx="10.218957"
         cy="66.847092"
         cx="90.598686"
         id="ellipse1151"
         style="color:#000000;clip-rule:nonzero;display:inline;overflow:visible;visibility:visible;opacity:1;isolation:auto;mix-blend-mode:normal;color-interpolation:sRGB;color-interpolation-filters:linearRGB;solid-color:#000000;solid-opacity:1;vector-effect:none;fill:url(#radialGradient1220);fill-opacity:1;fill-rule:nonzero;stroke:none;stroke-width:2.2897191;stroke-linecap:butt;stroke-linejoin:miter;stroke-miterlimit:4;stroke-dasharray:none;stroke-dashoffset:0;stroke-opacity:0.62745098;color-rendering:auto;image-rendering:auto;shape-rendering:auto;text-rendering:auto;enable-background:accumulate" />
      <path
         style="color:#000000;clip-rule:nonzero;display:inline;overflow:visible;visibility:visible;opacity:1;isolation:auto;mix-blend-mode:normal;color-interpolation:sRGB;color-interpolation-filters:linearRGB;solid-color:#000000;solid-opacity:1;vector-effect:none;fill:url(#radialGradient1323);fill-opacity:1;fill-rule:nonzero;stroke:none;stroke-width:2.23013973;stroke-linecap:butt;stroke-linejoin:miter;stroke-miterlimit:4;stroke-dasharray:none;stroke-dashoffset:0;stroke-opacity:0.62745098;color-rendering:auto;image-rendering:auto;shape-rendering:auto;text-rendering:auto;enable-background:accumulate"
         d="m 79.640829,83.794105 c 15.344937,12.20932 10.866229,6.71546 23.196661,0.28043 C 96.046702,103.45676 96.43156,112.24341 91.134673,128.4244 85.37562,112.5283 85.543509,103.25116 79.640829,83.794105 Z"
         id="path968"
         inkscape:connector-curvature="0"
         sodipodi:nodetypes="cccc" />
      <path
         sodipodi:nodetypes="ccccccc"
         inkscape:connector-curvature="0"
         id="path953"
         d="m 106.17873,78.111605 c 0,0 13.53751,0.63356 13.16639,8.05651 -0.18549,6.12391 -6.85689,8.29645 -6.85689,8.29645 l -2.48932,31.409175 -3.44903,-34.007195 c 0,0 9.54109,-2.1632 8.05651,-7.35927 -1.4846,-5.19605 -8.42766,-6.39567 -8.42766,-6.39567 z"
         style="color:#000000;clip-rule:nonzero;display:inline;overflow:visible;visibility:visible;opacity:1;isolation:auto;mix-blend-mode:normal;color-interpolation:sRGB;color-interpolation-filters:linearRGB;solid-color:#000000;solid-opacity:1;vector-effect:none;fill:url(#radialGradient1386);fill-opacity:1;fill-rule:nonzero;stroke:none;stroke-width:1.56613302;stroke-linecap:butt;stroke-linejoin:miter;stroke-miterlimit:4;stroke-dasharray:none;stroke-dashoffset:0;stroke-opacity:0.62745098;color-rendering:auto;image-rendering:auto;shape-rendering:auto;text-rendering:auto;enable-background:accumulate" />
      <path
         sodipodi:nodetypes="ccscc"
         inkscape:connector-curvature="0"
         id="path957"
         d="m 79.640829,83.794105 c 7.46532,4.59918 15.237137,3.98765 23.196661,0.18548 -2.56977,3.34689 -5.071787,10.12042 -6.456021,13.76466 -3.511942,9.245795 -3.396088,19.377145 -5.246796,28.638845 C 87.883362,113.41383 87.842278,96.050085 79.640829,83.794105 Z"
         style="color:#000000;clip-rule:nonzero;display:inline;overflow:visible;visibility:visible;opacity:1;isolation:auto;mix-blend-mode:normal;color-interpolation:sRGB;color-interpolation-filters:linearRGB;solid-color:#000000;solid-opacity:1;vector-effect:none;fill:url(#radialGradient1001);fill-opacity:1;fill-rule:nonzero;stroke:none;stroke-width:1.56613302;stroke-linecap:butt;stroke-linejoin:miter;stroke-miterlimit:4;stroke-dasharray:none;stroke-dashoffset:0;stroke-opacity:0.62745098;color-rendering:auto;image-rendering:auto;shape-rendering:auto;text-rendering:auto;enable-background:accumulate" />
      <path
         style="color:#000000;clip-rule:nonzero;display:inline;overflow:visible;visibility:visible;opacity:1;isolation:auto;mix-blend-mode:normal;color-interpolation:sRGB;color-interpolation-filters:linearRGB;solid-color:#000000;solid-opacity:1;vector-effect:none;fill:url(#radialGradient1397);fill-opacity:1;fill-rule:nonzero;stroke:none;stroke-width:2.23013973;stroke-linecap:butt;stroke-linejoin:miter;stroke-miterlimit:4;stroke-dasharray:none;stroke-dashoffset:0;stroke-opacity:0.62745098;color-rendering:auto;image-rendering:auto;shape-rendering:auto;text-rendering:auto;enable-background:accumulate"
         d="m 83.608232,74.476965 3.526543,5.19652 -18.282648,3.29075 c -5.955055,5.59861 5.477155,7.97028 7.518506,8.21451 L 71.359691,127.45864 66.442503,92.292145 c 2e-5,0 -2.877088,-0.92802 -3.248238,-7.97982 1.171159,-5.47757 14.757278,-6.44102 20.413967,-9.83536 z"
         id="path1389"
         inkscape:connector-curvature="0"
         sodipodi:nodetypes="cccccccc" />
      <path
         sodipodi:nodetypes="csscccc"
         inkscape:connector-curvature="0"
         id="path959"
         d="m 81.125674,71.453785 c -4.238668,9.29248 6.544926,10.99036 9.231544,11.26853 0.1567,0.0159 0.459454,0.0139 0.603817,6e-5 2.689918,-0.27658 13.469255,-1.97815 9.231545,-11.26855 -0.245672,4.08368 -4.598609,6.17153 -9.533966,6.47287 -4.935069,-0.3015 -9.287274,-2.38937 -9.53294,-6.47287 z"
         style="color:#000000;clip-rule:nonzero;display:inline;overflow:visible;visibility:visible;opacity:1;isolation:auto;mix-blend-mode:normal;color-interpolation:sRGB;color-interpolation-filters:linearRGB;solid-color:#000000;solid-opacity:1;vector-effect:none;fill:url(#radialGradient1149);fill-opacity:1;fill-rule:nonzero;stroke:none;stroke-width:1.56613302;stroke-linecap:butt;stroke-linejoin:miter;stroke-miterlimit:4;stroke-dasharray:none;stroke-dashoffset:0;stroke-opacity:0.62745098;color-rendering:auto;image-rendering:auto;shape-rendering:auto;text-rendering:auto;enable-background:accumulate" />
      <path
         style="color:#000000;clip-rule:nonzero;display:inline;overflow:visible;visibility:visible;opacity:1;isolation:auto;mix-blend-mode:normal;color-interpolation:sRGB;color-interpolation-filters:linearRGB;solid-color:#000000;solid-opacity:1;vector-effect:none;fill:url(#radialGradient1399);fill-opacity:1;fill-rule:nonzero;stroke:none;stroke-width:1.56613302;stroke-linecap:butt;stroke-linejoin:miter;stroke-miterlimit:4;stroke-dasharray:none;stroke-dashoffset:0;stroke-opacity:0.62745098;color-rendering:auto;image-rendering:auto;shape-rendering:auto;text-rendering:auto;enable-background:accumulate"
         d="m 75.442591,77.980375 c 0,0 -13.537516,0.63357 -13.166387,8.05651 0.185486,6.12392 6.856888,8.29646 6.856888,8.29646 l 2.489313,31.409175 3.449036,-34.007205 c 0,0 -9.541089,-2.1632 -8.056512,-7.35927 1.484597,-5.19605 8.427662,-6.39567 8.427662,-6.39567 z"
         id="path1391"
         inkscape:connector-curvature="0"
         sodipodi:nodetypes="ccccccc" />
      <ellipse
         style="color:#000000;clip-rule:nonzero;display:inline;overflow:visible;visibility:visible;opacity:1;isolation:auto;mix-blend-mode:normal;color-interpolation:sRGB;color-interpolation-filters:linearRGB;solid-color:#000000;solid-opacity:1;vector-effect:none;fill:url(#radialGradient1026);fill-opacity:1;fill-rule:nonzero;stroke:none;stroke-width:1.61088395;stroke-linecap:butt;stroke-linejoin:miter;stroke-miterlimit:4;stroke-dasharray:none;stroke-dashoffset:0;stroke-opacity:0.62745098;color-rendering:auto;image-rendering:auto;shape-rendering:auto;text-rendering:auto;enable-background:accumulate"
         id="ellipse970"
         cx="90.598686"
         cy="63.43539"
         rx="7.0005698"
         ry="10.200761" />
      <path
         style="color:#000000;clip-rule:nonzero;display:inline;overflow:visible;visibility:visible;opacity:1;isolation:auto;mix-blend-mode:normal;color-interpolation:sRGB;color-interpolation-filters:linearRGB;solid-color:#000000;solid-opacity:1;vector-effect:none;fill:url(#radialGradient1401);fill-opacity:1;fill-rule:nonzero;stroke:none;stroke-width:2.23013973;stroke-linecap:butt;stroke-linejoin:miter;stroke-miterlimit:4;stroke-dasharray:none;stroke-dashoffset:0;stroke-opacity:0.62745098;color-rendering:auto;image-rendering:auto;shape-rendering:auto;text-rendering:auto;enable-background:accumulate"
         d="M 79.897275,42.743949 C 87.543022,67.685203 76.527452,74.175265 57.999624,78.745165 64.086502,72.112175 67.51564,67.4725 70.862391,62.894582 64.14278,55.619074 57.304204,45.305075 53.545852,33.094147 c 9.179423,11.347658 12.202757,16.611693 21.59407,23.033593 2.756392,-3.553106 4.203575,-9.333941 4.757353,-13.383791 z"
         id="path1393"
         inkscape:connector-curvature="0"
         sodipodi:nodetypes="cccccc" />
      <path
         style="color:#000000;clip-rule:nonzero;display:inline;overflow:visible;visibility:visible;opacity:1;isolation:auto;mix-blend-mode:normal;color-interpolation:sRGB;color-interpolation-filters:linearRGB;solid-color:#000000;solid-opacity:1;vector-effect:none;fill:url(#radialGradient1403);fill-opacity:1;fill-rule:nonzero;stroke:none;stroke-width:1.55328667;stroke-linecap:butt;stroke-linejoin:miter;stroke-miterlimit:4;stroke-dasharray:none;stroke-dashoffset:0;stroke-opacity:0.62745098;color-rendering:auto;image-rendering:auto;shape-rendering:auto;text-rendering:auto;enable-background:accumulate"
         d="m 57.167382,38.579019 c 4.469501,5.830132 10.997993,14.659831 18.807522,18.693751 2.317734,-4.054452 3.127601,-6.824473 4.287212,-10.820542 5.509114,24.405767 -18.857199,30.522777 -19.945451,29.918197 4.971484,-4.36488 9.01332,-9.007848 12.216801,-13.741216 C 64.244353,57.529908 58.747893,45.198684 57.167382,38.579019 Z"
         id="path1395"
         inkscape:connector-curvature="0"
         sodipodi:nodetypes="cccccc" />
      <path
         sodipodi:nodetypes="cccccc"
         inkscape:connector-curvature="0"
         id="path1157"
         d="m 101.72404,42.875177 c -7.645744,24.941254 3.36983,31.431318 21.89765,36.001218 -6.08687,-6.63299 -9.51601,-11.272667 -12.86277,-15.850585 6.71962,-7.275508 13.5582,-17.589506 17.31655,-29.800435 -9.17943,11.347658 -12.20276,16.611693 -21.59408,23.033594 -2.75638,-3.553107 -4.20357,-9.333942 -4.75735,-13.383792 z"
         style="color:#000000;clip-rule:nonzero;display:inline;overflow:visible;visibility:visible;opacity:1;isolation:auto;mix-blend-mode:normal;color-interpolation:sRGB;color-interpolation-filters:linearRGB;solid-color:#000000;solid-opacity:1;vector-effect:none;fill:url(#radialGradient1361);fill-opacity:1;fill-rule:nonzero;stroke:none;stroke-width:2.23013973;stroke-linecap:butt;stroke-linejoin:miter;stroke-miterlimit:4;stroke-dasharray:none;stroke-dashoffset:0;stroke-opacity:0.62745098;color-rendering:auto;image-rendering:auto;shape-rendering:auto;text-rendering:auto;enable-background:accumulate" />
      <path
         sodipodi:nodetypes="cccccc"
         inkscape:connector-curvature="0"
         id="path974"
         d="m 124.45396,38.710255 c -4.46951,5.830117 -10.99801,14.659816 -18.80754,18.69375 -2.31773,-4.054457 -3.1276,-6.824471 -4.28721,-10.820541 -5.509118,24.405761 18.85721,30.522791 19.94546,29.918181 -4.97149,-4.36487 -9.01333,-9.007839 -12.2168,-13.741188 8.28911,-5.09932 13.78556,-17.430548 15.36609,-24.050202 z"
         style="color:#000000;clip-rule:nonzero;display:inline;overflow:visible;visibility:visible;opacity:1;isolation:auto;mix-blend-mode:normal;color-interpolation:sRGB;color-interpolation-filters:linearRGB;solid-color:#000000;solid-opacity:1;vector-effect:none;fill:url(#radialGradient1182);fill-opacity:1;fill-rule:nonzero;stroke:none;stroke-width:1.55328667;stroke-linecap:butt;stroke-linejoin:miter;stroke-miterlimit:4;stroke-dasharray:none;stroke-dashoffset:0;stroke-opacity:0.62745098;color-rendering:auto;image-rendering:auto;shape-rendering:auto;text-rendering:auto;enable-background:accumulate" />
    </g>
  </g>
</svg>
