<?xml version="1.0" encoding="UTF-8" standalone="no"?>
<!-- Created with Inkscape (http://www.inkscape.org/) -->

<svg
   xmlns:dc="http://purl.org/dc/elements/1.1/"
   xmlns:cc="http://creativecommons.org/ns#"
   xmlns:rdf="http://www.w3.org/1999/02/22-rdf-syntax-ns#"
   xmlns:svg="http://www.w3.org/2000/svg"
   xmlns="http://www.w3.org/2000/svg"
   xmlns:xlink="http://www.w3.org/1999/xlink"
   xmlns:sodipodi="http://sodipodi.sourceforge.net/DTD/sodipodi-0.dtd"
   xmlns:inkscape="http://www.inkscape.org/namespaces/inkscape"
   width="132"
   height="32"
   viewBox="0 0 34.924999 8.4666669"
   version="1.1"
   id="svg8"
   inkscape:version="0.92.3 (2405546, 2018-03-11)"
   sodipodi:docname="kajar_labs_without_logo_white_text.svg">
  <defs
     id="defs2">
    <radialGradient
       inkscape:collect="always"
       xlink:href="#linearGradient4894"
       id="radialGradient1249"
       gradientUnits="userSpaceOnUse"
       gradientTransform="matrix(9.91219,3.8640367,-1.5156441,3.887996,-1407.4246,-1097.5383)"
       cx="172.76143"
       cy="134.80534"
       fx="172.76143"
       fy="134.80534"
       r="4.8866181" />
    <linearGradient
       id="linearGradient4894"
       inkscape:collect="always">
      <stop
         id="stop4888"
         offset="0"
         style="stop-color:#808080;stop-opacity:1" />
      <stop
         style="stop-color:#40341c;stop-opacity:0.99626863"
         offset="0.73100019"
         id="stop4890" />
      <stop
         id="stop4892"
         offset="1"
         style="stop-color:#333333;stop-opacity:1" />
    </linearGradient>
    <radialGradient
       inkscape:collect="always"
       xlink:href="#1214-BW"
       id="radialGradient1220"
       cx="168.01018"
       cy="128.35617"
       fx="168.01018"
       fy="128.35617"
       r="4.8866181"
       gradientTransform="matrix(2.0912127,0,0,2.8355558,-260.74633,-297.114)"
       gradientUnits="userSpaceOnUse" />
    <linearGradient
       inkscape:collect="always"
       id="1214-BW">
      <stop
         style="stop-color:#a3822f;stop-opacity:1"
         offset="0"
         id="stop1210" />
      <stop
         id="stop1222"
         offset="0.73100019"
         style="stop-color:#40341c;stop-opacity:0.99626863" />
      <stop
         style="stop-color:#6e593b;stop-opacity:0.95149255"
         offset="1"
         id="stop1212" />
    </linearGradient>
    <radialGradient
       inkscape:collect="always"
       xlink:href="#1214-BW"
       id="radialGradient1323"
       gradientUnits="userSpaceOnUse"
       gradientTransform="matrix(3.7576242,0,0,3.3714389,-540.87051,-380.36189)"
       cx="168.47601"
       cy="139.36925"
       fx="168.47601"
       fy="139.36925"
       r="4.8866181" />
    <radialGradient
       inkscape:collect="always"
       xlink:href="#929-BW"
       id="radialGradient1386"
       gradientUnits="userSpaceOnUse"
       gradientTransform="matrix(6.9323199,-0.14062852,0.07955273,3.9215729,-660.23761,-423.34208)"
       cx="109.56001"
       cy="135.15414"
       fx="109.56001"
       fy="135.15414"
       r="3.299118" />
    <linearGradient
       inkscape:collect="always"
       id="929-BW">
      <stop
         style="stop-color:#f7eba0;stop-opacity:1"
         offset="0"
         id="stop925" />
      <stop
         style="stop-color:#827738;stop-opacity:0.99215686"
         offset="1"
         id="stop927" />
    </linearGradient>
    <radialGradient
       inkscape:collect="always"
       xlink:href="#929-BW"
       id="radialGradient1001"
       gradientUnits="userSpaceOnUse"
       gradientTransform="matrix(6.933746,-9.126523e-6,4.1147024e-6,3.1260866,-649.64258,-331.23508)"
       cx="106.75913"
       cy="135.65785"
       fx="106.75913"
       fy="135.65785"
       r="3.299118" />
    <radialGradient
       inkscape:collect="always"
       xlink:href="#1214-BW"
       id="radialGradient1397"
       gradientUnits="userSpaceOnUse"
       gradientTransform="matrix(-9.91219,3.8640367,1.5156441,3.887996,1589.0459,-1097.6695)"
       cx="172.76143"
       cy="134.80534"
       fx="172.76143"
       fy="134.80534"
       r="4.8866181" />
    <radialGradient
       inkscape:collect="always"
       xlink:href="#929-BW"
       id="radialGradient1149"
       cx="635.11414"
       cy="512.11249"
       fx="635.11414"
       fy="512.11249"
       r="20.021667"
       gradientTransform="matrix(0.34137121,0,0,0.28268904,-126.15062,-65.55539)"
       gradientUnits="userSpaceOnUse" />
    <radialGradient
       inkscape:collect="always"
       xlink:href="#929-BW"
       id="radialGradient1399"
       gradientUnits="userSpaceOnUse"
       gradientTransform="matrix(-6.9323199,-0.14062852,-0.07955273,3.9215729,841.85893,-423.47331)"
       cx="109.56001"
       cy="135.15414"
       fx="109.56001"
       fy="135.15414"
       r="3.299118" />
    <radialGradient
       inkscape:collect="always"
       xlink:href="#929-BW"
       id="radialGradient1026"
       gradientUnits="userSpaceOnUse"
       gradientTransform="matrix(2.3626187,0,0,2.938668,-161.63243,-307.12128)"
       cx="106.75914"
       cy="124.97254"
       fx="106.75914"
       fy="124.97254"
       r="3.299118" />
    <radialGradient
       inkscape:collect="always"
       xlink:href="#1214-BW"
       id="radialGradient1401"
       gradientUnits="userSpaceOnUse"
       gradientTransform="matrix(-5.3733782,-2.6964088,-1.0994494,2.1909723,1158.1641,257.29918)"
       cx="175.28622"
       cy="127.06042"
       fx="175.28622"
       fy="127.06042"
       r="4.8866181" />
    <radialGradient
       inkscape:collect="always"
       xlink:href="#929-BW"
       id="radialGradient1403"
       gradientUnits="userSpaceOnUse"
       gradientTransform="matrix(-6.0906097,-2.2166893,-1.4082417,3.869307,951.29307,-172.75853)"
       cx="115.28527"
       cy="125.95786"
       fx="115.28527"
       fy="125.95786"
       r="3.299118" />
    <radialGradient
       inkscape:collect="always"
       xlink:href="#1214-BW"
       id="radialGradient1361"
       gradientUnits="userSpaceOnUse"
       gradientTransform="matrix(5.3733782,-2.6964088,1.0994494,2.1909723,-976.54273,257.43041)"
       cx="175.28622"
       cy="127.06042"
       fx="175.28622"
       fy="127.06042"
       r="4.8866181" />
    <radialGradient
       inkscape:collect="always"
       xlink:href="#929-BW"
       id="radialGradient1182"
       gradientUnits="userSpaceOnUse"
       gradientTransform="matrix(6.0906097,-2.2166893,1.4082417,3.869307,-769.67182,-172.62731)"
       cx="115.28527"
       cy="125.95786"
       fx="115.28527"
       fy="125.95786"
       r="3.299118" />
  </defs>
  <sodipodi:namedview
     id="base"
     pagecolor="#ffffff"
     bordercolor="#666666"
     borderopacity="1.0"
     inkscape:pageopacity="0.0"
     inkscape:pageshadow="2"
     inkscape:zoom="4"
     inkscape:cx="-24.404843"
     inkscape:cy="44.893611"
     inkscape:document-units="mm"
     inkscape:current-layer="layer1"
     showgrid="false"
     inkscape:window-width="1718"
     inkscape:window-height="1368"
     inkscape:window-x="419"
     inkscape:window-y="1080"
     inkscape:window-maximized="0"
     units="px" />
  <metadata
     id="metadata5">
    <rdf:RDF>
      <cc:Work
         rdf:about="">
        <dc:format>image/svg+xml</dc:format>
        <dc:type
           rdf:resource="http://purl.org/dc/dcmitype/StillImage" />
        <dc:title></dc:title>
      </cc:Work>
    </rdf:RDF>
  </metadata>
  <g
     inkscape:label="Layer 1"
     inkscape:groupmode="layer"
     id="layer1"
     transform="translate(0,-288.53332)">
    <path
       inkscape:connector-curvature="0"
       id="path5104"
       style="font-style:normal;font-variant:normal;font-weight:normal;font-stretch:normal;font-size:medium;line-height:1.25;font-family:Stingray;-inkscape-font-specification:Stingray;letter-spacing:0px;word-spacing:0px;fill:#ffffff;fill-opacity:1;stroke:none;stroke-width:0.06741236"
       d="m 11.537024,290.60446 c -0.212219,0.20902 -0.570797,0.46225 -0.815947,0.65117 -0.150018,0.008 -0.329307,0.0844 -0.369555,0.11657 -0.1427,0.1246 -0.17563,0.23715 -0.186608,0.37381 l -0.4098031,0.3899 c -0.2085606,0.19696 -0.2744219,0.30146 -0.5378666,0.54666 -0.1097692,0.10048 -0.2231974,0.24117 -0.3293065,0.37783 -0.1280637,0.16078 -0.2231974,0.22108 -0.2963759,0.29745 -0.062202,-0.008 -0.058544,-0.0563 -0.00366,-0.23715 0.021953,-0.0764 0.051225,-0.15677 0.080496,-0.24118 0.1024515,-0.27735 0.237833,-0.56273 0.2853998,-0.63508 0.2122189,-0.34166 0.325647,-0.55068 0.5488438,-0.86823 l 0.5707975,-0.8039 c 0.160994,-0.22912 0.486642,-0.43009 0.647636,-0.60695 0.02195,-0.0121 0.153676,-0.15676 0.219537,-0.19696 0.128065,-0.0603 0.215879,-0.18892 0.234174,-0.24519 0.03659,-0.10049 0.01464,-0.20902 -0.0622,-0.30147 -0.06952,-0.0804 -0.157335,-0.14872 -0.223196,-0.16078 -0.07684,-0.0121 -0.398827,0.0322 -0.504937,0.14068 -0.109768,0.11255 -0.292716,0.51852 -0.336624,0.5949 -0.1463583,0.24921 -0.3146705,0.53861 -0.4317569,0.70341 -0.2963753,0.41402 -0.4646875,0.76372 -0.837902,1.37871 -0.150017,0.24519 -0.2597857,0.50244 -0.4756647,0.96871 l -0.1609944,0.33362 c -0.080497,0.16882 -0.1573354,0.33362 -0.1792888,0.40999 -0.051226,0.17284 -0.1097687,0.3899 -0.1207459,0.48637 -0.029272,0.15676 -0.047566,0.3095 -0.032931,0.42607 0.018295,0.14068 0.080498,0.23313 0.2231968,0.24117 0.098792,0.004 0.2305146,-0.0603 0.347601,-0.14872 0.1134281,-0.0844 0.215879,-0.19696 0.2634452,-0.29343 0.047567,-0.0884 0.091474,-0.19696 0.1500177,-0.31352 0.073179,-0.13667 0.1609944,-0.28941 0.2853986,-0.43009 0.1134276,-0.13667 0.4024857,-0.48637 0.468347,-0.57078 0.032931,-0.0603 0.3402832,-0.38989 0.8159484,-0.8441 0.05122,0.0683 0.117086,0.13666 0.171971,0.21303 0.186607,0.26127 0.417121,0.54666 0.446393,0.60293 0.128063,0.20098 0.387849,0.65117 0.731792,1.05714 0.365896,0.44617 0.757405,0.84009 0.933035,1.029 0.285398,0.34167 0.537866,0.47431 0.706179,0.50245 0.07684,0.0121 0.208561,0.008 0.21222,-0.0482 -0.03659,-0.0362 -0.215879,-0.12862 -0.289058,-0.13666 -0.179289,-0.0322 -0.219538,-0.14471 -0.442735,-0.36176 -0.150017,-0.16078 -0.336624,-0.3698 -0.537867,-0.65519 -0.05123,-0.0924 -0.182947,-0.29744 -0.318329,-0.47832 -0.24515,-0.3296 -0.347601,-0.61901 -0.519572,-0.91244 -0.168312,-0.2894 -0.292717,-0.55469 -0.435416,-0.90037 -0.05854,-0.14069 -0.102451,-0.24519 -0.135382,-0.38588 0,0 -0.0037,0 -0.0037,-0.004 l 0.204902,-0.20098 c 0.332965,-0.29343 0.662271,-0.58685 0.797653,-0.7195 0.848879,-0.78381 1.12696,-0.88028 1.211116,-0.96469 0.02195,-0.0241 0.735451,-0.5145 0.918399,-0.62704 0.113428,-0.0724 0.296375,-0.21304 0.512254,-0.33363 0.07318,-0.0241 0.139041,-0.0563 0.201243,-0.0844 0.109769,-0.0482 0.1427,0.0201 0.20856,-0.0161 0.0622,-0.0241 0.131723,-0.0683 0.07318,-0.0965 -0.0805,-0.0322 -0.318329,0.0161 -0.464688,0.0643 -0.128064,0.0402 -0.431758,0.17284 -0.578116,0.27333 -0.270763,0.16882 -0.439075,0.18892 -0.775699,0.43813 -0.06952,0.0523 -0.384191,0.29342 -0.761064,0.56273 -0.325647,0.23314 -0.676907,0.45823 -0.892786,0.64313 z" />
    <path
       inkscape:connector-curvature="0"
       id="path5106"
       style="font-style:normal;font-variant:normal;font-weight:normal;font-stretch:normal;font-size:medium;line-height:1.25;font-family:Stingray;-inkscape-font-specification:Stingray;letter-spacing:0px;word-spacing:0px;fill:#ffffff;fill-opacity:1;stroke:none;stroke-width:0.06603979"
       d="m 14.400584,291.07494 c -0.08801,0.004 -0.264039,0.0876 -0.423139,0.17929 -0.192951,0.10424 -0.372362,0.2335 -0.521307,0.33774 -0.132019,0.10424 -0.321586,0.30021 -0.440065,0.4253 -0.216647,0.23349 -0.358821,0.3836 -0.531462,0.62126 -0.108324,0.15011 -0.186182,0.30438 -0.257269,0.43364 -0.07447,0.14177 -0.118478,0.2877 -0.135404,0.39611 -0.0068,0.0667 0.05755,0.27519 0.121864,0.34191 0.07109,0.0667 0.236957,0.0959 0.341896,0.0459 0.0677,-0.0292 0.15233,-0.17512 0.277579,-0.32522 0.08124,-0.10424 0.216647,-0.22516 0.274194,-0.30438 0.128635,-0.17096 0.253884,-0.27103 0.42991,-0.41279 l 0.328355,-0.25018 c 0.02708,-0.0167 0.13879,-0.0792 0.216647,-0.10841 0.07109,-0.025 0.121864,-0.0292 0.159101,-0.0292 0.03724,0.004 0.03724,0.0417 0.03047,0.0876 -0.0237,0.10007 -0.01693,0.0959 -0.04062,0.22932 -0.03385,0.1793 -0.04401,0.39194 -0.05416,0.50869 -0.03724,0.29187 0.145559,0.57124 0.321585,0.55873 0.172641,-0.0125 0.206492,-0.0625 0.375747,-0.21682 0.179411,-0.15844 0.416369,-0.39611 0.649942,-0.59208 0.115094,-0.10007 0.368977,-0.27936 0.460375,-0.36276 0.104938,-0.0917 0.142175,-0.10007 0.213262,-0.16261 0.03047,-0.0208 0.01016,-0.12926 -0.0034,-0.1376 -0.04062,-0.0292 -0.17941,0.025 -0.199721,0.0542 -0.08801,0.12926 -0.321586,0.27936 -0.629631,0.52537 -0.09817,0.0792 -0.270809,0.20014 -0.423139,0.26268 -0.09478,0.0417 -0.182796,0.0334 -0.236957,-0.0417 -0.03385,-0.05 -0.05416,-0.12508 -0.05078,-0.23766 0,-0.0876 0.04062,-0.25435 0.0914,-0.37943 0.02031,-0.0417 0.03724,-0.21682 0.15233,-0.29188 0.08463,-0.0584 0.09817,-0.14593 0.09817,-0.25851 0,-0.0542 -0.0034,-0.11258 -0.04739,-0.15011 -0.04401,-0.0375 -0.162486,-0.0792 -0.196337,-0.0792 -0.04062,0 -0.135405,0.0334 -0.192952,0.10841 -0.270809,0.17512 -1.144167,0.83392 -1.513144,1.08826 -0.07109,0.0459 -0.172641,0.14177 -0.179411,0.11258 -0.01016,-0.0417 0.118479,-0.25434 0.138789,-0.27936 0.08801,-0.14593 0.192952,-0.25017 0.270809,-0.33774 0.101554,-0.12508 0.206492,-0.26268 0.406214,-0.4378 0.09478,-0.0876 0.209876,-0.1793 0.358821,-0.26269 0.07447,-0.0417 0.142175,-0.025 0.196337,-0.0375 0.08801,-0.0292 0.162486,0.0125 0.236958,0.0125 0.0237,0 0.108324,-0.0792 0.135404,-0.0917 0.0237,-0.0125 0.07109,-0.1084 0.07786,-0.17095 0.01015,-0.0751 0.02708,-0.11258 0.0237,-0.15844 -0.01016,-0.0959 -0.15233,-0.22099 -0.311429,-0.21265 z" />
    <path
       inkscape:connector-curvature="0"
       id="path5108"
       style="font-style:normal;font-variant:normal;font-weight:normal;font-stretch:normal;font-size:medium;line-height:1.25;font-family:Stingray;-inkscape-font-specification:Stingray;letter-spacing:0px;word-spacing:0px;fill:#ffffff;fill-opacity:1;stroke:none;stroke-width:0.07064193"
       d="m 16.861178,290.52096 c 0.06937,0.0168 0.28902,-0.0545 0.362238,-0.10059 0.192681,-0.11734 0.23507,-0.31432 0.289021,-0.43586 0.01927,-0.0293 0.07707,-0.23888 0.01927,-0.31851 -0.04239,-0.0754 -0.196533,-0.0713 -0.242776,-0.0754 -0.07707,0 -0.393067,0.13411 -0.512529,0.3269 -0.04239,0.0838 -0.09249,0.27241 -0.07707,0.35623 0.02698,0.10897 0.07707,0.21374 0.161851,0.24727 z m -1.741826,4.50528 c 0.134876,-0.21793 0.331409,-0.5113 0.423896,-0.67894 0.208094,-0.31851 0.608868,-1.26147 0.86706,-1.83145 0.07322,-0.16763 0.34297,-0.38556 0.412335,-0.45262 0.104047,-0.11735 0.06551,-0.20117 0.127168,-0.30594 0.03468,-0.0754 -0.01156,-0.22631 -0.0578,-0.30175 -0.0501,-0.0629 -0.15029,-0.10896 -0.208094,-0.11735 -0.07707,-0.0168 -0.354531,0.088 -0.462432,0.21374 -0.07322,0.0754 -0.150291,0.1886 -0.173412,0.23051 -0.05395,0.088 -0.0077,0.20954 -0.06937,0.31432 -0.111754,0.20117 -0.34297,0.94296 -0.473992,1.21957 -0.400775,0.80885 -1.005789,1.55065 -1.287102,1.89431 -0.327556,0.38976 -0.863206,0.76695 -1.306371,0.96392 -0.312141,0.1425 -0.605014,0.23051 -0.836231,0.24727 -0.111753,0.004 -0.319848,0.0629 -0.408481,0.0251 -0.123315,-0.0545 -0.281312,-0.0838 -0.431603,-0.38557 -0.1079,-0.22631 -0.165705,0.16764 -0.01156,0.35204 0.161852,0.19697 0.335263,0.25984 0.447017,0.31432 0.134877,0.0712 0.296728,0.10897 0.47014,0.11735 0.169558,0.0126 0.447017,0.004 0.697501,-0.0713 0.493261,-0.15087 1.048179,-0.4652 1.425831,-0.86334 0.215802,-0.22631 0.697502,-0.62864 0.8555,-0.88429 z" />
    <path
       inkscape:connector-curvature="0"
       id="path5110"
       style="font-style:normal;font-variant:normal;font-weight:normal;font-stretch:normal;font-size:medium;line-height:1.25;font-family:Stingray;-inkscape-font-specification:Stingray;letter-spacing:0px;word-spacing:0px;fill:#ffffff;fill-opacity:1;stroke:none;stroke-width:0.06603979"
       d="m 19.012137,291.07494 c -0.08801,0.004 -0.264038,0.0876 -0.423139,0.17929 -0.192951,0.10424 -0.372362,0.2335 -0.521307,0.33774 -0.132019,0.10424 -0.321585,0.30021 -0.440064,0.4253 -0.216647,0.23349 -0.358822,0.3836 -0.531463,0.62126 -0.108323,0.15011 -0.186181,0.30438 -0.257268,0.43364 -0.07447,0.14177 -0.118479,0.2877 -0.135405,0.39611 -0.0068,0.0667 0.05755,0.27519 0.121864,0.34191 0.07109,0.0667 0.236958,0.0959 0.341897,0.0459 0.0677,-0.0292 0.15233,-0.17512 0.277579,-0.32522 0.08124,-0.10424 0.216647,-0.22516 0.274194,-0.30438 0.128634,-0.17096 0.253883,-0.27103 0.429909,-0.41279 l 0.328356,-0.25018 c 0.02708,-0.0167 0.138789,-0.0792 0.216647,-0.10841 0.07109,-0.025 0.121864,-0.0292 0.1591,-0.0292 0.03724,0.004 0.03724,0.0417 0.03047,0.0876 -0.0237,0.10007 -0.01693,0.0959 -0.04062,0.22932 -0.03385,0.1793 -0.04401,0.39194 -0.05416,0.50869 -0.03724,0.29187 0.14556,0.57124 0.321585,0.55873 0.172641,-0.0125 0.206492,-0.0625 0.375748,-0.21682 0.179411,-0.15844 0.416369,-0.39611 0.649941,-0.59208 0.115094,-0.10007 0.368977,-0.27936 0.460375,-0.36276 0.104939,-0.0917 0.142175,-0.10007 0.213262,-0.16261 0.03047,-0.0208 0.01016,-0.12926 -0.0034,-0.1376 -0.04062,-0.0292 -0.179411,0.025 -0.199721,0.0542 -0.08801,0.12926 -0.321586,0.27936 -0.629631,0.52537 -0.09817,0.0792 -0.270809,0.20014 -0.423139,0.26268 -0.09478,0.0417 -0.182796,0.0334 -0.236958,-0.0417 -0.03385,-0.05 -0.05416,-0.12508 -0.05078,-0.23766 0,-0.0876 0.04062,-0.25435 0.0914,-0.37943 0.02031,-0.0417 0.03724,-0.21682 0.152331,-0.29188 0.08463,-0.0584 0.09817,-0.14593 0.09817,-0.25851 0,-0.0542 -0.0034,-0.11258 -0.04739,-0.15011 -0.04401,-0.0375 -0.162485,-0.0792 -0.196336,-0.0792 -0.04062,0 -0.135405,0.0334 -0.192952,0.10841 -0.270809,0.17512 -1.144167,0.83392 -1.513144,1.08826 -0.07109,0.0459 -0.172641,0.14177 -0.179411,0.11258 -0.01016,-0.0417 0.118479,-0.25434 0.138789,-0.27936 0.08801,-0.14593 0.192952,-0.25017 0.270809,-0.33774 0.101554,-0.12508 0.206492,-0.26268 0.406214,-0.4378 0.09478,-0.0876 0.209876,-0.1793 0.358821,-0.26269 0.07447,-0.0417 0.142175,-0.025 0.196337,-0.0375 0.08801,-0.0292 0.162485,0.0125 0.236958,0.0125 0.0237,0 0.108323,-0.0792 0.135404,-0.0917 0.0237,-0.0125 0.07109,-0.1084 0.07786,-0.17095 0.01016,-0.0751 0.02708,-0.11258 0.0237,-0.15844 -0.01016,-0.0959 -0.15233,-0.22099 -0.31143,-0.21265 z" />
    <path
       inkscape:connector-curvature="0"
       id="path5112"
       style="font-style:normal;font-variant:normal;font-weight:normal;font-stretch:normal;font-size:medium;line-height:1.25;font-family:Stingray;-inkscape-font-specification:Stingray;letter-spacing:0px;word-spacing:0px;fill:#ffffff;fill-opacity:1;stroke:none;stroke-width:0.06603979"
       d="m 20.941677,291.4919 c -0.03724,0.0751 -0.04401,0.31689 -0.08463,0.3836 -0.05755,0.10841 -0.257268,0.45031 -0.328355,0.5754 -0.196337,0.34608 -0.247114,0.45032 -0.335126,0.66714 -0.04739,0.11675 -0.115094,0.31689 -0.111709,0.4378 0.01015,0.0876 0.121864,0.30021 0.203107,0.30855 0.101553,0.008 0.247113,-0.0542 0.30466,-0.14593 0.04062,-0.0667 0.07786,-0.13343 0.0914,-0.21682 0.01016,-0.0542 0.0068,-0.15011 0.03047,-0.22933 0.02031,-0.05 0.03385,-0.15427 0.118478,-0.28353 0.165871,-0.25852 0.118479,-0.20431 0.338512,-0.45866 0.121864,-0.14593 0.331741,-0.3836 0.467145,-0.50035 0.108324,-0.0959 0.280964,-0.25434 0.352052,-0.2877 0.07109,-0.0333 0.203106,-0.0751 0.257268,-0.0751 0.06432,-0.004 0.111709,0.0334 0.203107,0.0751 0.06432,0.0292 0.104938,0.025 0.189566,0.0167 0.05416,-0.004 0.03047,-0.0167 0.08801,-0.0625 0.115094,-0.0959 0.182796,-0.21682 0.213262,-0.37944 0.0068,-0.0375 -0.0237,-0.12508 -0.04739,-0.16678 -0.02708,-0.0459 -0.118479,-0.0792 -0.148945,-0.075 -0.07109,0.0125 -0.104938,-0.0125 -0.17264,0.0125 -0.07447,0.0292 -0.128635,0.0459 -0.196337,0.0876 -0.05755,0.0334 -0.128634,0.0876 -0.186181,0.12926 -0.223417,0.15844 -0.514537,0.4378 -0.670252,0.58374 -0.04401,0.0417 -0.09817,0.10841 -0.155715,0.17095 -0.0034,0.004 -0.05416,0.0459 -0.07786,0.0459 -0.01693,0 -0.01354,-0.0334 0,-0.0625 l 0.07786,-0.15427 c 0.05416,-0.0876 0.08463,-0.10841 0.108324,-0.14177 0.04062,-0.0584 0.06432,-0.0792 0.08124,-0.14593 0.01693,-0.0459 0.0034,-0.15011 -0.0237,-0.18347 -0.01693,-0.0208 -0.04062,-0.0625 -0.07786,-0.0876 -0.04401,-0.0333 -0.09817,-0.05 -0.132019,-0.0542 -0.07447,-0.008 -0.169256,0.004 -0.226803,0.0292 -0.08801,0.0375 -0.125249,0.11674 -0.148945,0.18763 z" />
    <path
       inkscape:connector-curvature="0"
       id="path5114"
       style="font-style:normal;font-variant:normal;font-weight:normal;font-stretch:normal;font-size:85.33333588px;line-height:1.25;font-family:Stingray;-inkscape-font-specification:Stingray;letter-spacing:0px;word-spacing:0px;fill:#c0b888;fill-opacity:1;stroke:none;stroke-width:0.06603979"
       d="m 26.140283,289.15693 c 0.0068,-0.0334 0.01693,-0.0876 0,-0.12926 -0.0237,-0.0584 -0.07447,-0.10007 -0.101553,-0.10007 -0.05755,0 -0.118479,-0.13343 -0.294505,-0.10841 -0.17264,0.025 -0.348666,0.13343 -0.429909,0.27102 -0.02031,0.0334 -0.14556,0.35859 -0.230187,0.47117 -0.09817,0.11675 -0.186182,0.2877 -0.318201,0.5212 -0.115094,0.20431 -0.264039,0.45865 -0.47053,0.77137 -0.230188,0.34608 -0.477301,0.69215 -0.717644,1.03823 -0.172641,0.25017 -0.348666,0.50035 -0.507767,0.75886 -0.15233,0.24184 -0.29112,0.48784 -0.412984,0.74219 -0.03047,0.0542 -0.145559,0.30855 -0.199721,0.50869 -0.05078,0.17512 -0.04739,0.30021 -0.04739,0.41279 0,0.12092 0.03724,0.25851 0.111708,0.34191 0.07447,0.0709 0.280965,0.19597 0.375748,0.19597 0.15233,-0.008 0.267423,0.0375 0.406213,0.0333 0.125249,-0.004 0.267424,-0.0584 0.409598,-0.0709 0.402829,-0.0375 0.76165,-0.18763 1.137398,-0.27102 0.379132,-0.0876 0.639786,-0.17513 1.350659,-0.3294 0.507767,-0.11675 0.934291,-0.17512 1.123857,-0.14594 0.05078,0.008 0.15233,0.004 0.15233,-0.0417 0,-0.05 -0.07786,-0.0417 -0.125249,-0.0667 -0.09478,-0.0584 -0.453605,0.0125 -0.744724,-0.004 -0.169256,-0.004 -0.856434,0.05 -1.228796,0.12926 -0.368977,0.0834 -0.406213,0.11258 -0.727799,0.14594 -0.30466,0.0334 -0.663482,0.13759 -0.92075,0.13759 -0.220032,0 -0.382518,-0.0792 -0.467145,-0.13342 -0.104939,-0.0626 -0.162486,-0.1793 -0.169256,-0.29604 -0.01692,-0.23767 0.07109,-0.56707 0.223417,-0.88813 0.14556,-0.31689 0.392673,-0.84225 0.839508,-1.44685 0.115094,-0.14176 0.324971,-0.46282 0.429909,-0.60876 0.206492,-0.27102 0.612705,-0.6713 0.917365,-1.04656 0.176026,-0.22099 0.348667,-0.25435 0.473916,-0.41696 0.101553,-0.14594 0.148945,-0.30855 0.162485,-0.37526 z" />
    <path
       inkscape:connector-curvature="0"
       id="path5116"
       style="font-style:normal;font-variant:normal;font-weight:normal;font-stretch:normal;font-size:medium;line-height:1.25;font-family:Stingray;-inkscape-font-specification:Stingray;letter-spacing:0px;word-spacing:0px;fill:#ffffff;fill-opacity:1;stroke:none;stroke-width:0.06603979"
       d="m 27.888137,291.07494 c -0.08801,0.004 -0.264039,0.0876 -0.423139,0.17929 -0.192952,0.10424 -0.372363,0.2335 -0.521307,0.33774 -0.13202,0.10424 -0.321586,0.30021 -0.440065,0.4253 -0.216647,0.23349 -0.358822,0.3836 -0.531462,0.62126 -0.108324,0.15011 -0.186181,0.30438 -0.257269,0.43364 -0.07447,0.14177 -0.118479,0.2877 -0.135404,0.39611 -0.0068,0.0667 0.05755,0.27519 0.121864,0.34191 0.07109,0.0667 0.236958,0.0959 0.341896,0.0459 0.0677,-0.0292 0.15233,-0.17512 0.277579,-0.32522 0.08124,-0.10424 0.216647,-0.22516 0.274194,-0.30438 0.128634,-0.17096 0.253883,-0.27103 0.429909,-0.41279 l 0.328356,-0.25018 c 0.02708,-0.0167 0.13879,-0.0792 0.216647,-0.10841 0.07109,-0.025 0.121864,-0.0292 0.1591,-0.0292 0.03724,0.004 0.03724,0.0417 0.03047,0.0876 -0.0237,0.10007 -0.01693,0.0959 -0.04062,0.22932 -0.03385,0.1793 -0.04401,0.39194 -0.05416,0.50869 -0.03724,0.29187 0.14556,0.57124 0.321586,0.55873 0.17264,-0.0125 0.206492,-0.0625 0.375747,-0.21682 0.179411,-0.15844 0.416369,-0.39611 0.649942,-0.59208 0.115093,-0.10007 0.368977,-0.27936 0.460375,-0.36276 0.104938,-0.0917 0.142174,-0.10007 0.213262,-0.16261 0.03047,-0.0208 0.01015,-0.12926 -0.0034,-0.1376 -0.04062,-0.0292 -0.179411,0.025 -0.199721,0.0542 -0.08801,0.12926 -0.321586,0.27936 -0.629631,0.52537 -0.09817,0.0792 -0.270809,0.20014 -0.423139,0.26268 -0.09478,0.0417 -0.182796,0.0334 -0.236958,-0.0417 -0.03385,-0.05 -0.05416,-0.12508 -0.05078,-0.23766 0,-0.0876 0.04062,-0.25435 0.0914,-0.37943 0.02031,-0.0417 0.03723,-0.21682 0.15233,-0.29188 0.08463,-0.0584 0.09817,-0.14593 0.09817,-0.25851 0,-0.0542 -0.0034,-0.11258 -0.04739,-0.15011 -0.04401,-0.0375 -0.162485,-0.0792 -0.196337,-0.0792 -0.04062,0 -0.135404,0.0334 -0.192951,0.10841 -0.270808,0.17512 -1.144168,0.83392 -1.513145,1.08826 -0.07109,0.0459 -0.17264,0.14177 -0.179411,0.11258 -0.01015,-0.0417 0.118479,-0.25434 0.13879,-0.27936 0.08801,-0.14593 0.192951,-0.25017 0.270809,-0.33774 0.101553,-0.12508 0.206492,-0.26268 0.406213,-0.4378 0.09478,-0.0876 0.209878,-0.1793 0.358822,-0.26269 0.07447,-0.0417 0.142175,-0.025 0.196337,-0.0375 0.08801,-0.0292 0.162485,0.0125 0.236958,0.0125 0.0237,0 0.108323,-0.0792 0.135404,-0.0917 0.0237,-0.0125 0.07109,-0.1084 0.07786,-0.17095 0.01015,-0.0751 0.02708,-0.11258 0.0237,-0.15844 -0.01016,-0.0959 -0.15233,-0.22099 -0.31143,-0.21265 z" />
    <path
       inkscape:connector-curvature="0"
       id="path5118"
       style="font-style:normal;font-variant:normal;font-weight:normal;font-stretch:normal;font-size:medium;line-height:1.25;font-family:Stingray;-inkscape-font-specification:Stingray;letter-spacing:0px;word-spacing:0px;fill:#ffffff;fill-opacity:1;stroke:none;stroke-width:0.06603979"
       d="m 29.44431,293.85605 c 0.04739,0.008 0.453605,0.0334 0.741339,-0.17512 0.179411,-0.12509 0.372363,-0.23767 0.545003,-0.33774 0.355437,-0.24183 0.484071,-0.4378 0.812427,-0.74635 0.142175,-0.1376 0.247113,-0.32523 0.352052,-0.45449 0.1591,-0.18763 0.236957,-0.50035 0.240342,-0.58791 0.01693,-0.15844 -0.0914,-0.34607 -0.226802,-0.39611 -0.05416,-0.0167 -0.121864,-0.0417 -0.192951,-0.0292 -0.118479,0.025 -0.321586,0.0667 -0.551774,0.18763 -0.121864,0.0625 -0.257268,0.16262 -0.368977,0.24601 -0.189566,0.13343 -0.379132,0.24184 -0.541617,0.37943 -0.02031,0.0167 -0.101554,0.0751 -0.155716,0.0917 -0.0914,0.0292 -0.09817,-0.10841 -0.07447,-0.17095 0.03385,-0.0876 0.08801,-0.19597 0.121864,-0.26268 0.05416,-0.10007 0.115094,-0.2335 0.182796,-0.38361 0.06093,-0.13342 0.132019,-0.27936 0.206492,-0.42529 0.09478,-0.18764 0.203106,-0.36693 0.3182,-0.51286 0.08124,-0.10007 0.1591,-0.20848 0.230188,-0.29604 0.08801,-0.10841 0.17264,-0.19181 0.240343,-0.21682 0.121864,-0.0334 0.189566,-0.16679 0.203106,-0.18346 0.04401,-0.0334 0.06093,-0.20848 -0.02031,-0.27937 -0.04739,-0.0417 -0.148945,-0.13342 -0.267424,-0.11675 -0.09817,0.0167 -0.257269,0.11258 -0.335126,0.20431 -0.04401,0.0625 -0.104939,0.1793 -0.169256,0.30021 -0.0914,0.17513 -0.182796,0.36276 -0.226802,0.43364 -0.07109,0.10424 -0.216647,0.34191 -0.358822,0.58374 -0.148945,0.25018 -0.294505,0.50869 -0.355437,0.62127 -0.108323,0.18763 -0.17264,0.30021 -0.220032,0.38777 -0.06093,0.11675 -0.09478,0.19598 -0.162486,0.34608 -0.05416,0.11675 -0.0914,0.20848 -0.118478,0.29187 -0.0677,0.1918 -0.08124,0.31689 -0.101553,0.50869 -0.0068,0.10841 0.04401,0.23767 0.125249,0.26686 l -0.0237,0.0375 c -0.03047,0.0334 -0.12525,0.27519 -0.104938,0.43781 0.01692,0.17095 0.17941,0.23766 0.257268,0.25017 z m 0.1591,-0.85059 c 0.01016,-0.0292 0.04739,-0.05 0.135405,-0.22099 0.03385,-0.075 0.09478,-0.1376 0.15233,-0.21265 0.132019,-0.16678 0.142174,-0.17512 0.308045,-0.33357 0.243728,-0.21682 0.402828,-0.29604 0.605935,-0.45448 0.213262,-0.16679 0.453605,-0.19597 0.548388,-0.22516 0.05078,-0.008 0.08801,0.004 0.111708,0.0125 0.04739,0.0208 -0.02708,0.15427 -0.04401,0.1918 -0.0677,0.15844 -0.09478,0.31272 -0.341896,0.54622 -0.0914,0.0834 -0.216647,0.22515 -0.402829,0.37109 -0.16587,0.12926 -0.443449,0.37526 -0.731184,0.55456 -0.186181,0.1084 -0.338511,0.18346 -0.419753,0.21264 -0.101554,0.0334 -0.09478,0.0292 -0.121864,-0.0167 -0.03385,-0.0459 -0.02031,-0.17096 -0.0034,-0.24601 0.0034,-0.0125 0.01693,-0.0375 0.03385,-0.0625 0.0677,-0.025 0.138789,-0.0667 0.169255,-0.11675 z" />
    <path
       inkscape:connector-curvature="0"
       id="path5120"
       style="font-style:normal;font-variant:normal;font-weight:normal;font-stretch:normal;font-size:medium;line-height:1.25;font-family:Stingray;-inkscape-font-specification:Stingray;letter-spacing:0px;word-spacing:0px;fill:#ffffff;fill-opacity:1;stroke:none;stroke-width:0.0728792"
       d="m 33.92255,293.44959 c 0.114757,-0.11684 0.132411,-0.1441 0.145653,-0.21031 0.02648,-0.15189 -0.01324,-0.25704 -0.110343,-0.3583 -0.09269,-0.10126 -0.255994,-0.19084 -0.339854,-0.22978 -0.11917,-0.0662 -0.242753,-0.17915 -0.353095,-0.23368 -0.08386,-0.0428 -0.176548,-0.0974 -0.220685,-0.14409 -0.04414,-0.0429 -0.220684,-0.10905 -0.150065,-0.21031 0.06179,-0.0974 0.105929,-0.12852 0.189788,-0.16357 0.05738,-0.0234 0.136825,-0.0506 0.251581,-0.10516 0.03531,-0.0234 0.101515,-0.008 0.180961,-0.0389 0.07062,-0.0273 0.225098,-0.008 0.264821,-0.0195 0.06179,-0.0117 0.07062,0.0117 0.09269,0.0195 0.02648,0.008 0.04855,0.0117 0.05738,0.0506 0,0.0234 -0.0088,0.0896 -0.0044,0.10125 0.01766,0.10516 0.110344,0.12853 0.211857,0.11684 0.105929,-0.0117 0.229512,-0.0584 0.269235,-0.0779 0.150066,-0.074 0.2251,-0.17136 0.300132,-0.29599 0.01765,-0.0467 0.06179,-0.13241 0.05296,-0.17525 -0.0088,-0.0195 -0.03972,-0.0935 -0.110342,-0.13631 -0.07062,-0.0389 -0.180961,-0.0467 -0.207443,-0.0584 -0.105929,-0.0156 -0.216271,-0.008 -0.326613,0.0156 -0.11917,0.0234 -0.286891,0.0584 -0.454611,0.11294 -0.105928,0.035 -0.211857,0.074 -0.308958,0.12462 -0.110342,0.0545 -0.242752,0.11684 -0.375163,0.18695 -0.123584,0.0662 -0.247167,0.13631 -0.353096,0.2103 -0.119169,0.0818 -0.211857,0.17136 -0.269235,0.26094 -0.02207,0.0351 -0.06621,0.10126 -0.02648,0.26094 0.01324,0.0545 0.114757,0.12073 0.238339,0.19473 0.07062,0.0428 0.150066,0.0857 0.225099,0.13241 0.09269,0.0584 0.16772,0.1441 0.238339,0.19862 0.127997,0.0896 0.229511,0.23757 0.176548,0.34273 -0.07503,0.15189 -0.242754,0.19473 -0.313373,0.20251 -0.132409,0.0117 -0.26482,0.0506 -0.366336,0.0623 -0.286889,0.0234 -0.441368,0 -0.617916,0.0117 -0.127998,0.008 -0.348681,-0.0234 -0.556125,-0.074 -0.101514,-0.0234 -0.20303,-0.0545 -0.28689,-0.0857 -0.114756,-0.0428 -0.198616,-0.0935 -0.211857,-0.1441 -0.04414,-0.13631 -0.172134,-0.0156 -0.01324,0.19863 0.0309,0.0389 0.09269,0.0857 0.176548,0.12462 0.101514,0.0506 0.225098,0.0935 0.357508,0.13242 0.145653,0.0428 0.291304,0.0779 0.401645,0.0974 0.229513,0.0389 0.459025,0.0584 0.582609,0.0389 0.110341,-0.0195 0.269235,-0.0156 0.406058,-0.0312 0.163307,-0.0234 0.348682,-0.0467 0.472266,-0.0935 0.110341,-0.0428 0.229512,-0.0779 0.339853,-0.12852 0.167721,-0.0857 0.326614,-0.15967 0.344268,-0.18304 z" />
    <g
       transform="matrix(0.06751442,0,0,0.06751442,-1.7424024,286.42314)"
       style="display:inline"
       id="g2208">
      <path
         sodipodi:nodetypes="cccccccc"
         inkscape:connector-curvature="0"
         id="path1155"
         d="m 98.013095,74.608195 -3.526543,5.19652 18.282658,3.29075 c 5.95505,5.5986 -5.47716,7.97028 -7.5185,8.21452 l 5.01093,36.279885 4.91718,-35.166495 c -1e-5,0 2.87709,-0.92802 3.24824,-7.97982 -1.17116,-5.47757 -14.75727,-6.44102 -20.413965,-9.83536 z"
         style="color:#000000;clip-rule:nonzero;display:inline;overflow:visible;visibility:visible;opacity:1;isolation:auto;mix-blend-mode:normal;color-interpolation:sRGB;color-interpolation-filters:linearRGB;solid-color:#000000;solid-opacity:1;vector-effect:none;fill:url(#radialGradient1249);fill-opacity:1;fill-rule:nonzero;stroke:none;stroke-width:2.23013973;stroke-linecap:butt;stroke-linejoin:miter;stroke-miterlimit:4;stroke-dasharray:none;stroke-dashoffset:0;stroke-opacity:0.62745098;color-rendering:auto;image-rendering:auto;shape-rendering:auto;text-rendering:auto;enable-background:accumulate" />
      <ellipse
         ry="14.118714"
         rx="10.218957"
         cy="66.847092"
         cx="90.598686"
         id="ellipse1151"
         style="color:#000000;clip-rule:nonzero;display:inline;overflow:visible;visibility:visible;opacity:1;isolation:auto;mix-blend-mode:normal;color-interpolation:sRGB;color-interpolation-filters:linearRGB;solid-color:#000000;solid-opacity:1;vector-effect:none;fill:url(#radialGradient1220);fill-opacity:1;fill-rule:nonzero;stroke:none;stroke-width:2.2897191;stroke-linecap:butt;stroke-linejoin:miter;stroke-miterlimit:4;stroke-dasharray:none;stroke-dashoffset:0;stroke-opacity:0.62745098;color-rendering:auto;image-rendering:auto;shape-rendering:auto;text-rendering:auto;enable-background:accumulate" />
      <path
         style="color:#000000;clip-rule:nonzero;display:inline;overflow:visible;visibility:visible;opacity:1;isolation:auto;mix-blend-mode:normal;color-interpolation:sRGB;color-interpolation-filters:linearRGB;solid-color:#000000;solid-opacity:1;vector-effect:none;fill:url(#radialGradient1323);fill-opacity:1;fill-rule:nonzero;stroke:none;stroke-width:2.23013973;stroke-linecap:butt;stroke-linejoin:miter;stroke-miterlimit:4;stroke-dasharray:none;stroke-dashoffset:0;stroke-opacity:0.62745098;color-rendering:auto;image-rendering:auto;shape-rendering:auto;text-rendering:auto;enable-background:accumulate"
         d="m 79.640829,83.794105 c 15.344937,12.20932 10.866229,6.71546 23.196661,0.28043 C 96.046702,103.45676 96.43156,112.24341 91.134673,128.4244 85.37562,112.5283 85.543509,103.25116 79.640829,83.794105 Z"
         id="path968"
         inkscape:connector-curvature="0"
         sodipodi:nodetypes="cccc" />
      <path
         sodipodi:nodetypes="ccccccc"
         inkscape:connector-curvature="0"
         id="path953"
         d="m 106.17873,78.111605 c 0,0 13.53751,0.63356 13.16639,8.05651 -0.18549,6.12391 -6.85689,8.29645 -6.85689,8.29645 l -2.48932,31.409175 -3.44903,-34.007195 c 0,0 9.54109,-2.1632 8.05651,-7.35927 -1.4846,-5.19605 -8.42766,-6.39567 -8.42766,-6.39567 z"
         style="color:#000000;clip-rule:nonzero;display:inline;overflow:visible;visibility:visible;opacity:1;isolation:auto;mix-blend-mode:normal;color-interpolation:sRGB;color-interpolation-filters:linearRGB;solid-color:#000000;solid-opacity:1;vector-effect:none;fill:url(#radialGradient1386);fill-opacity:1;fill-rule:nonzero;stroke:none;stroke-width:1.56613302;stroke-linecap:butt;stroke-linejoin:miter;stroke-miterlimit:4;stroke-dasharray:none;stroke-dashoffset:0;stroke-opacity:0.62745098;color-rendering:auto;image-rendering:auto;shape-rendering:auto;text-rendering:auto;enable-background:accumulate" />
      <path
         sodipodi:nodetypes="ccscc"
         inkscape:connector-curvature="0"
         id="path957"
         d="m 79.640829,83.794105 c 7.46532,4.59918 15.237137,3.98765 23.196661,0.18548 -2.56977,3.34689 -5.071787,10.12042 -6.456021,13.76466 -3.511942,9.245795 -3.396088,19.377145 -5.246796,28.638845 C 87.883362,113.41383 87.842278,96.050085 79.640829,83.794105 Z"
         style="color:#000000;clip-rule:nonzero;display:inline;overflow:visible;visibility:visible;opacity:1;isolation:auto;mix-blend-mode:normal;color-interpolation:sRGB;color-interpolation-filters:linearRGB;solid-color:#000000;solid-opacity:1;vector-effect:none;fill:url(#radialGradient1001);fill-opacity:1;fill-rule:nonzero;stroke:none;stroke-width:1.56613302;stroke-linecap:butt;stroke-linejoin:miter;stroke-miterlimit:4;stroke-dasharray:none;stroke-dashoffset:0;stroke-opacity:0.62745098;color-rendering:auto;image-rendering:auto;shape-rendering:auto;text-rendering:auto;enable-background:accumulate" />
      <path
         style="color:#000000;clip-rule:nonzero;display:inline;overflow:visible;visibility:visible;opacity:1;isolation:auto;mix-blend-mode:normal;color-interpolation:sRGB;color-interpolation-filters:linearRGB;solid-color:#000000;solid-opacity:1;vector-effect:none;fill:url(#radialGradient1397);fill-opacity:1;fill-rule:nonzero;stroke:none;stroke-width:2.23013973;stroke-linecap:butt;stroke-linejoin:miter;stroke-miterlimit:4;stroke-dasharray:none;stroke-dashoffset:0;stroke-opacity:0.62745098;color-rendering:auto;image-rendering:auto;shape-rendering:auto;text-rendering:auto;enable-background:accumulate"
         d="m 83.608232,74.476965 3.526543,5.19652 -18.282648,3.29075 c -5.955055,5.59861 5.477155,7.97028 7.518506,8.21451 L 71.359691,127.45864 66.442503,92.292145 c 2e-5,0 -2.877088,-0.92802 -3.248238,-7.97982 1.171159,-5.47757 14.757278,-6.44102 20.413967,-9.83536 z"
         id="path1389"
         inkscape:connector-curvature="0"
         sodipodi:nodetypes="cccccccc" />
      <path
         sodipodi:nodetypes="csscccc"
         inkscape:connector-curvature="0"
         id="path959"
         d="m 81.125674,71.453785 c -4.238668,9.29248 6.544926,10.99036 9.231544,11.26853 0.1567,0.0159 0.459454,0.0139 0.603817,6e-5 2.689918,-0.27658 13.469255,-1.97815 9.231545,-11.26855 -0.245672,4.08368 -4.598609,6.17153 -9.533966,6.47287 -4.935069,-0.3015 -9.287274,-2.38937 -9.53294,-6.47287 z"
         style="color:#000000;clip-rule:nonzero;display:inline;overflow:visible;visibility:visible;opacity:1;isolation:auto;mix-blend-mode:normal;color-interpolation:sRGB;color-interpolation-filters:linearRGB;solid-color:#000000;solid-opacity:1;vector-effect:none;fill:url(#radialGradient1149);fill-opacity:1;fill-rule:nonzero;stroke:none;stroke-width:1.56613302;stroke-linecap:butt;stroke-linejoin:miter;stroke-miterlimit:4;stroke-dasharray:none;stroke-dashoffset:0;stroke-opacity:0.62745098;color-rendering:auto;image-rendering:auto;shape-rendering:auto;text-rendering:auto;enable-background:accumulate" />
      <path
         style="color:#000000;clip-rule:nonzero;display:inline;overflow:visible;visibility:visible;opacity:1;isolation:auto;mix-blend-mode:normal;color-interpolation:sRGB;color-interpolation-filters:linearRGB;solid-color:#000000;solid-opacity:1;vector-effect:none;fill:url(#radialGradient1399);fill-opacity:1;fill-rule:nonzero;stroke:none;stroke-width:1.56613302;stroke-linecap:butt;stroke-linejoin:miter;stroke-miterlimit:4;stroke-dasharray:none;stroke-dashoffset:0;stroke-opacity:0.62745098;color-rendering:auto;image-rendering:auto;shape-rendering:auto;text-rendering:auto;enable-background:accumulate"
         d="m 75.442591,77.980375 c 0,0 -13.537516,0.63357 -13.166387,8.05651 0.185486,6.12392 6.856888,8.29646 6.856888,8.29646 l 2.489313,31.409175 3.449036,-34.007205 c 0,0 -9.541089,-2.1632 -8.056512,-7.35927 1.484597,-5.19605 8.427662,-6.39567 8.427662,-6.39567 z"
         id="path1391"
         inkscape:connector-curvature="0"
         sodipodi:nodetypes="ccccccc" />
      <ellipse
         style="color:#000000;clip-rule:nonzero;display:inline;overflow:visible;visibility:visible;opacity:1;isolation:auto;mix-blend-mode:normal;color-interpolation:sRGB;color-interpolation-filters:linearRGB;solid-color:#000000;solid-opacity:1;vector-effect:none;fill:url(#radialGradient1026);fill-opacity:1;fill-rule:nonzero;stroke:none;stroke-width:1.61088395;stroke-linecap:butt;stroke-linejoin:miter;stroke-miterlimit:4;stroke-dasharray:none;stroke-dashoffset:0;stroke-opacity:0.62745098;color-rendering:auto;image-rendering:auto;shape-rendering:auto;text-rendering:auto;enable-background:accumulate"
         id="ellipse970"
         cx="90.598686"
         cy="63.43539"
         rx="7.0005698"
         ry="10.200761" />
      <path
         style="color:#000000;clip-rule:nonzero;display:inline;overflow:visible;visibility:visible;opacity:1;isolation:auto;mix-blend-mode:normal;color-interpolation:sRGB;color-interpolation-filters:linearRGB;solid-color:#000000;solid-opacity:1;vector-effect:none;fill:url(#radialGradient1401);fill-opacity:1;fill-rule:nonzero;stroke:none;stroke-width:2.23013973;stroke-linecap:butt;stroke-linejoin:miter;stroke-miterlimit:4;stroke-dasharray:none;stroke-dashoffset:0;stroke-opacity:0.62745098;color-rendering:auto;image-rendering:auto;shape-rendering:auto;text-rendering:auto;enable-background:accumulate"
         d="M 79.897275,42.743949 C 87.543022,67.685203 76.527452,74.175265 57.999624,78.745165 64.086502,72.112175 67.51564,67.4725 70.862391,62.894582 64.14278,55.619074 57.304204,45.305075 53.545852,33.094147 c 9.179423,11.347658 12.202757,16.611693 21.59407,23.033593 2.756392,-3.553106 4.203575,-9.333941 4.757353,-13.383791 z"
         id="path1393"
         inkscape:connector-curvature="0"
         sodipodi:nodetypes="cccccc" />
      <path
         style="color:#000000;clip-rule:nonzero;display:inline;overflow:visible;visibility:visible;opacity:1;isolation:auto;mix-blend-mode:normal;color-interpolation:sRGB;color-interpolation-filters:linearRGB;solid-color:#000000;solid-opacity:1;vector-effect:none;fill:url(#radialGradient1403);fill-opacity:1;fill-rule:nonzero;stroke:none;stroke-width:1.55328667;stroke-linecap:butt;stroke-linejoin:miter;stroke-miterlimit:4;stroke-dasharray:none;stroke-dashoffset:0;stroke-opacity:0.62745098;color-rendering:auto;image-rendering:auto;shape-rendering:auto;text-rendering:auto;enable-background:accumulate"
         d="m 57.167382,38.579019 c 4.469501,5.830132 10.997993,14.659831 18.807522,18.693751 2.317734,-4.054452 3.127601,-6.824473 4.287212,-10.820542 5.509114,24.405767 -18.857199,30.522777 -19.945451,29.918197 4.971484,-4.36488 9.01332,-9.007848 12.216801,-13.741216 C 64.244353,57.529908 58.747893,45.198684 57.167382,38.579019 Z"
         id="path1395"
         inkscape:connector-curvature="0"
         sodipodi:nodetypes="cccccc" />
      <path
         sodipodi:nodetypes="cccccc"
         inkscape:connector-curvature="0"
         id="path1157"
         d="m 101.72404,42.875177 c -7.645744,24.941254 3.36983,31.431318 21.89765,36.001218 -6.08687,-6.63299 -9.51601,-11.272667 -12.86277,-15.850585 6.71962,-7.275508 13.5582,-17.589506 17.31655,-29.800435 -9.17943,11.347658 -12.20276,16.611693 -21.59408,23.033594 -2.75638,-3.553107 -4.20357,-9.333942 -4.75735,-13.383792 z"
         style="color:#000000;clip-rule:nonzero;display:inline;overflow:visible;visibility:visible;opacity:1;isolation:auto;mix-blend-mode:normal;color-interpolation:sRGB;color-interpolation-filters:linearRGB;solid-color:#000000;solid-opacity:1;vector-effect:none;fill:url(#radialGradient1361);fill-opacity:1;fill-rule:nonzero;stroke:none;stroke-width:2.23013973;stroke-linecap:butt;stroke-linejoin:miter;stroke-miterlimit:4;stroke-dasharray:none;stroke-dashoffset:0;stroke-opacity:0.62745098;color-rendering:auto;image-rendering:auto;shape-rendering:auto;text-rendering:auto;enable-background:accumulate" />
      <path
         sodipodi:nodetypes="cccccc"
         inkscape:connector-curvature="0"
         id="path974"
         d="m 124.45396,38.710255 c -4.46951,5.830117 -10.99801,14.659816 -18.80754,18.69375 -2.31773,-4.054457 -3.1276,-6.824471 -4.28721,-10.820541 -5.509118,24.405761 18.85721,30.522791 19.94546,29.918181 -4.97149,-4.36487 -9.01333,-9.007839 -12.2168,-13.741188 8.28911,-5.09932 13.78556,-17.430548 15.36609,-24.050202 z"
         style="color:#000000;clip-rule:nonzero;display:inline;overflow:visible;visibility:visible;opacity:1;isolation:auto;mix-blend-mode:normal;color-interpolation:sRGB;color-interpolation-filters:linearRGB;solid-color:#000000;solid-opacity:1;vector-effect:none;fill:url(#radialGradient1182);fill-opacity:1;fill-rule:nonzero;stroke:none;stroke-width:1.55328667;stroke-linecap:butt;stroke-linejoin:miter;stroke-miterlimit:4;stroke-dasharray:none;stroke-dashoffset:0;stroke-opacity:0.62745098;color-rendering:auto;image-rendering:auto;shape-rendering:auto;text-rendering:auto;enable-background:accumulate" />
    </g>
  </g>
</svg>
